<svg width="16" height="16" viewBox="0 0 16 16" fill="none" xmlns="http://www.w3.org/2000/svg">
<path d="M2.14645 13.1464C1.95118 13.3417 1.95118 13.6583 2.14645 13.8535C2.34171 14.0488 2.65829 14.0488 2.85355 13.8535L8 8.70709L13.1466 13.8537C13.3418 14.0489 13.6584 14.0489 13.8537 13.8537C14.0489 13.6584 14.0489 13.3418 13.8537 13.1466L8.70711 7.99998L13.8536 2.85354C14.0488 2.65828 14.0488 2.34169 13.8536 2.14643C13.6583 1.95117 13.3417 1.95117 13.1464 2.14643L8 7.29288L2.85367 2.14655C2.65841 1.95129 2.34183 1.95129 2.14657 2.14655C1.95131 2.34182 1.95131 2.6584 2.14657 2.85366L7.29289 7.99998L2.14645 13.1464Z" fill="#CED0D6"/>
</svg>
