<svg width="16" height="16" viewBox="0 0 16 16" fill="none" xmlns="http://www.w3.org/2000/svg">
<path d="M12.9497 3.05025C15.6834 5.78392 15.6834 10.2161 12.9497 12.9497C10.2161 15.6834 5.78392 15.6834 3.05025 12.9497C0.316583 10.2161 0.316583 5.78392 3.05025 3.05025C5.78392 0.316583 10.2161 0.316583 12.9497 3.05025Z" fill="#3D3223"/>
<path fill-rule="evenodd" clip-rule="evenodd" d="M14.9143 6.90481L13.9265 7.06045C13.736 5.85124 13.1755 4.69027 12.2426 3.75736C11.3097 2.82445 10.1488 2.26404 8.93955 2.07352L9.09519 1.0857C10.5063 1.30802 11.8624 1.96287 12.9497 3.05025C14.0371 4.13763 14.692 5.49375 14.9143 6.90481ZM6.90481 1.0857L7.06045 2.07352C5.85124 2.26404 4.69027 2.82445 3.75736 3.75736C2.82445 4.69027 2.26404 5.85124 2.07352 7.06045L1.08571 6.90481C1.30803 5.49375 1.96287 4.13763 3.05025 3.05025C4.13763 1.96287 5.49375 1.30802 6.90481 1.0857ZM1.08571 9.09519C1.30803 10.5063 1.96287 11.8624 3.05025 12.9497C4.13763 14.0371 5.49375 14.692 6.90481 14.9143L7.06045 13.9265C5.85124 13.736 4.69027 13.1755 3.75736 12.2426C2.82445 11.3097 2.26404 10.1488 2.07352 8.93955L1.08571 9.09519ZM9.09519 14.9143L8.93955 13.9265C10.1488 13.736 11.3097 13.1755 12.2426 12.2426C13.1755 11.3097 13.736 10.1488 13.9265 8.93955L14.9143 9.09519C14.692 10.5063 14.0371 11.8624 12.9497 12.9497C11.8624 14.0371 10.5063 14.692 9.09519 14.9143Z" fill="#D6AE58"/>
<path d="M9 4.5L6 8H10L7 11.5" stroke="#D6AE58" stroke-linecap="round"/>
</svg>
