<svg width="16" height="16" viewBox="0 0 16 16" fill="none" xmlns="http://www.w3.org/2000/svg">
<g clip-path="url(#clip0_22_30341)">
<path d="M9.50002 5.50001L3.91402 11.086C3.63802 11.362 3.50002 11.724 3.50002 12.086C3.50002 12.448 3.63802 12.81 3.91402 13.086C4.19002 13.362 4.55202 13.5 4.91402 13.5C5.27602 13.5 5.63802 13.362 5.91402 13.086L11.671 7.32901C12.223 6.77701 12.499 6.05301 12.499 5.32901C12.499 4.60501 12.223 3.88101 11.671 3.32901C11.119 2.77701 10.395 2.50101 9.67102 2.50101C8.94702 2.50101 8.22302 2.77701 7.67102 3.32901L2.99902 8.00101" stroke="#CED0D6" stroke-miterlimit="10" stroke-linecap="round"/>
</g>
<defs>
<clipPath id="clip0_22_30341">
<rect width="16" height="16" fill="white"/>
</clipPath>
</defs>
</svg>
