<svg width="14" height="14" viewBox="0 0 14 14" fill="none" xmlns="http://www.w3.org/2000/svg">
<path fill-rule="evenodd" clip-rule="evenodd" d="M13.827 0.175736C14.0613 0.410051 14.0613 0.78995 13.827 1.02426L10.0301 4.82114C9.79581 5.05545 9.41591 5.05545 9.1816 4.82114L7.17574 2.81528C6.94142 2.58097 6.94142 2.20107 7.17574 1.96675C7.41005 1.73244 7.78995 1.73244 8.02426 1.96675L9.60586 3.54835L12.9785 0.175736C13.2128 -0.0585787 13.5927 -0.0585787 13.827 0.175736Z" fill="#CED0D6"/>
<path d="M6.03736 2.06387C3.10006 2.4548 0.677265 4.58732 0 6.99999C0.75 9.67177 3.64058 12 7 12C10.3594 12 13.25 9.67177 14 6.99999C13.7003 5.93236 13.0588 4.91958 12.1822 4.0883L10.7406 5.52982C10.6096 5.66088 10.4614 5.76445 10.3034 5.84053C10.4307 6.2034 10.5 6.59359 10.5 6.99996C10.5 8.93296 8.933 10.5 7 10.5C5.067 10.5 3.5 8.93296 3.5 6.99996C3.5 5.24173 4.79647 3.7863 6.48558 3.5375L6.47205 3.52397C6.07554 3.12746 5.93065 2.57463 6.03736 2.06387Z" fill="#F2C55C"/>
<path d="M9 6.99997C9 8.10454 8.10457 8.99997 7 8.99997C5.89543 8.99997 5 8.10454 5 6.99997C5 5.8954 5.89543 4.99997 7 4.99997C8.10457 4.99997 9 5.8954 9 6.99997Z" fill="#F2C55C"/>
</svg>
