<svg width="14" height="14" viewBox="0 0 14 14" fill="none" xmlns="http://www.w3.org/2000/svg">
<path d="M7.80486 0.166112C8.10325 -0.185103 8.69243 0.0642133 8.62615 0.513768L7.93084 5.2042H12.5344C12.9264 5.20483 13.1419 5.64472 12.8937 5.9376L6.19549 13.8341C5.89714 14.1856 5.30786 13.9361 5.3742 13.4864L6.06951 8.79599H1.46599C1.07366 8.79564 0.858087 8.35556 1.10662 8.0626L7.80486 0.166112ZM3.18377 7.54599H6.06951C6.4327 7.54615 6.77847 7.70368 7.0158 7.97861C7.2531 8.25375 7.35902 8.61919 7.30584 8.97861L7.0158 10.9337L10.8166 6.4542H7.93084C7.56759 6.45415 7.22195 6.29649 6.98455 6.02158C6.74713 5.74641 6.6413 5.3811 6.69451 5.02158L6.98357 3.06553L3.18377 7.54599Z" fill="#DB5C5C"/>
</svg>
