<svg width="16" height="16" viewBox="0 0 16 16" fill="none" xmlns="http://www.w3.org/2000/svg">
<path d="M4.5 8C6.15685 8 7.5 9.34315 7.5 11C7.5 12.6569 6.15685 14 4.5 14C2.84315 14 1.5 12.6569 1.5 11C1.5 9.34315 2.84315 8 4.5 8ZM11.5 8C13.1569 8 14.5 9.34315 14.5 11C14.5 12.6569 13.1569 14 11.5 14C9.84315 14 8.5 12.6569 8.5 11C8.5 9.34315 9.84315 8 11.5 8ZM4.5 9C3.39543 9 2.5 9.89543 2.5 11C2.5 12.1046 3.39543 13 4.5 13C5.60457 13 6.5 12.1046 6.5 11C6.5 9.89543 5.60457 9 4.5 9ZM11.5 9C10.3954 9 9.5 9.89543 9.5 11C9.5 12.1046 10.3954 13 11.5 13C12.6046 13 13.5 12.1046 13.5 11C13.5 9.89543 12.6046 9 11.5 9Z" fill="#CED0D6"/>
<path d="M11.5371 1.00289C11.5489 1.00376 11.5607 1.00413 11.5722 1.00582C11.592 1.00868 11.6115 1.01328 11.6308 1.01851C11.6434 1.02193 11.6558 1.02587 11.668 1.03023C11.6859 1.03662 11.7034 1.04419 11.7207 1.05269C11.7326 1.05857 11.7445 1.06447 11.7558 1.07125C11.7718 1.08076 11.7867 1.09203 11.8017 1.10347C11.8131 1.11215 11.8243 1.1212 11.8349 1.13082C11.8408 1.13618 11.8478 1.14076 11.8535 1.14644C11.8597 1.15263 11.8643 1.1605 11.8701 1.16695C11.8808 1.17878 11.8909 1.19122 11.9004 1.20406C11.9121 1.21989 11.923 1.23609 11.9326 1.25289C11.9379 1.26217 11.9435 1.27155 11.9482 1.28121C11.9578 1.30088 11.9658 1.32122 11.9726 1.34175C11.9763 1.35259 11.9795 1.36378 11.9824 1.37496C11.9877 1.39554 11.9915 1.41647 11.9941 1.43746C11.995 1.44414 11.9974 1.4512 11.998 1.45796C11.9985 1.46338 11.9969 1.46918 11.9971 1.47457C11.9981 1.49573 11.9977 1.51691 11.9961 1.53804C11.9953 1.5488 11.9946 1.5597 11.9931 1.57027C11.9903 1.59033 11.9858 1.61018 11.9805 1.62984C11.9769 1.64297 11.9733 1.6562 11.9687 1.6689C11.9627 1.68556 11.9551 1.70167 11.9472 1.71773C11.9411 1.73029 11.9348 1.74288 11.9277 1.75484C11.9187 1.77 11.9083 1.78445 11.8974 1.79879C11.8878 1.81154 11.8779 1.82411 11.8672 1.83589C11.8623 1.84117 11.8586 1.84833 11.8535 1.85347C10.7739 2.93321 10.4716 4.20099 10.5361 5.37203C10.6016 6.55813 11.0446 7.6285 11.4238 8.23531C11.5699 8.46939 11.4986 8.77746 11.2646 8.92379C11.0305 9.0698 10.7224 8.99861 10.5762 8.76461C10.1222 8.03812 9.61431 6.80764 9.53807 5.42769C9.48585 4.48066 9.63863 3.45535 10.1543 2.4814L10.833 1.873L9.60252 2.44234C8.36944 2.92511 7.42666 3.73199 6.71971 4.64351C5.67107 5.99579 5.1499 7.56395 4.99412 8.57613C4.95194 8.84883 4.6966 9.03607 4.42381 8.9941C4.1511 8.95201 3.96403 8.69654 4.00584 8.42379C4.18351 7.26944 4.76221 5.53679 5.92967 4.03121C7.10657 2.51371 8.89325 1.21581 11.458 1.00191C11.4635 1.00146 11.4691 1.00219 11.4746 1.00191C11.4955 1.00084 11.5162 1.00135 11.5371 1.00289Z" fill="#CED0D6"/>
</svg>
