<svg width="16" height="16" viewBox="0 0 16 16" fill="none" xmlns="http://www.w3.org/2000/svg">
<circle cx="8" cy="8" r="6.5" fill="#45322B" stroke="#C77D55"/>
<path d="M11 9C11.2762 9 11.5 9.22386 11.5 9.5C11.5 9.77614 11.2762 10 11 10H5.00003C4.7239 9.99999 4.50003 9.77613 4.50003 9.5C4.50003 9.22387 4.7239 9.00001 5.00003 9H11ZM11 6C11.2762 6 11.5 6.22386 11.5 6.5C11.5 6.77614 11.2762 7 11 7H5.00003C4.72389 7 4.50003 6.77614 4.50003 6.5C4.50003 6.22386 4.72389 6 5.00003 6H11Z" fill="#C77D55"/>
</svg>
