<svg width="16" height="16" viewBox="0 0 16 16" fill="none" xmlns="http://www.w3.org/2000/svg">
<path d="M10.7731 4.47742C10.9726 4.27532 11.3001 4.28045 11.4938 4.48817C11.6764 4.68401 11.672 4.98892 11.484 5.17957L8.70177 7.99891L11.484 10.8202C11.672 11.0108 11.6764 11.3158 11.4938 11.5116C11.3001 11.7193 10.9726 11.7243 10.7731 11.5223L8.0006 8.71082L5.22911 11.5214C5.02967 11.7236 4.70218 11.7192 4.50841 11.5116C4.32579 11.3158 4.33014 11.0108 4.51818 10.8202L7.29845 7.99989L4.5172 5.17957C4.32938 4.98901 4.32514 4.68398 4.50744 4.48817C4.70115 4.28043 5.02961 4.27528 5.22911 4.47742L8.0006 7.28797L10.7731 4.47742Z" fill="#6F737A"/>
</svg>
