<svg width="16" height="16" viewBox="0 0 16 16" fill="none" xmlns="http://www.w3.org/2000/svg">
<path d="M1 4C1 2.89543 1.89543 2 3 2H13C14.1046 2 15 2.89543 15 4V12C15 13.1046 14.1046 14 13 14H3C1.89543 14 1 13.1046 1 12V4Z" fill="#43454A"/>
<path fill-rule="evenodd" clip-rule="evenodd" d="M13 3H3C2.44772 3 2 3.44772 2 4V12C2 12.5523 2.44772 13 3 13H13C13.5523 13 14 12.5523 14 12V4C14 3.44772 13.5523 3 13 3ZM3 2C1.89543 2 1 2.89543 1 4V12C1 13.1046 1.89543 14 3 14H13C14.1046 14 15 13.1046 15 12V4C15 2.89543 14.1046 2 13 2H3Z" fill="#CED0D6"/>
<path fill-rule="evenodd" clip-rule="evenodd" d="M7 10.5C7 10.2239 7.22386 10 7.5 10L10.5 10C10.7761 10 11 10.2239 11 10.5C11 10.7761 10.7761 11 10.5 11L7.5 11C7.22386 11 7 10.7761 7 10.5Z" fill="#CED0D6"/>
<path fill-rule="evenodd" clip-rule="evenodd" d="M4.12634 5.16655C4.3216 4.97129 4.63818 4.97129 4.83344 5.16655L6.81334 7.14645C7.0086 7.34171 7.0086 7.65829 6.81334 7.85356L4.83344 9.83345C4.63818 10.0287 4.3216 10.0287 4.12634 9.83345C3.93107 9.63819 3.93107 9.32161 4.12634 9.12635L5.75268 7.5L4.12634 5.87366C3.93107 5.67839 3.93107 5.36181 4.12634 5.16655Z" fill="#CED0D6"/>
</svg>
