<svg width="16" height="16" viewBox="0 0 16 16" fill="none" xmlns="http://www.w3.org/2000/svg">
<path d="M0.586091 6.58579L6.58579 0.586092C7.36684 -0.194956 8.63317 -0.194957 9.41422 0.586091L15.4139 6.58579C16.195 7.36684 16.195 8.63317 15.4139 9.41422L9.41422 15.4139C8.63317 16.195 7.36684 16.195 6.58579 15.4139L0.586092 9.41422C-0.194956 8.63317 -0.194957 7.36684 0.586091 6.58579Z" fill="#45322B"/>
<path fill-rule="evenodd" clip-rule="evenodd" d="M7.2929 1.2932L1.2932 7.2929C0.902674 7.68342 0.902674 8.31659 1.2932 8.70711L7.2929 14.7068C7.68342 15.0973 8.31659 15.0973 8.70711 14.7068L14.7068 8.70711C15.0973 8.31659 15.0973 7.68342 14.7068 7.2929L8.70711 1.2932C8.31659 0.902674 7.68342 0.902674 7.2929 1.2932ZM6.58579 0.586092L0.586091 6.58579C-0.194957 7.36684 -0.194956 8.63317 0.586092 9.41422L6.58579 15.4139C7.36684 16.195 8.63317 16.195 9.41422 15.4139L15.4139 9.41422C16.195 8.63317 16.195 7.36684 15.4139 6.58579L9.41422 0.586091C8.63317 -0.194957 7.36684 -0.194956 6.58579 0.586092Z" fill="#C77D55"/>
<path d="M8.1329 11.5C9.62185 11.5 10.8981 10.6008 11.2123 9.32459H10.1971C9.8829 10.0546 9.10459 10.5767 8.1329 10.5767C6.79381 10.5767 5.82696 9.50345 5.82696 8C5.82696 6.49655 6.79381 5.42334 8.1329 5.42334C9.10459 5.42334 9.8829 5.94544 10.1971 6.67541H11.2123C10.8981 5.39917 9.62185 4.5 8.1329 4.5C6.2137 4.5 4.7876 5.99378 4.7876 8C4.7876 10.0062 6.2137 11.5 8.1329 11.5Z" fill="#C77D55"/>
</svg>
