<svg width="16" height="16" viewBox="0 0 16 16" fill="none" xmlns="http://www.w3.org/2000/svg">
<path d="M13.8309 4.64001C14.2048 4.82275 14.2048 5.35634 13.8309 5.53908L8.21959 8.2805C8.08107 8.34819 7.91893 8.34819 7.78041 8.2805L2.16913 5.53908C1.79516 5.35634 1.79516 4.82275 2.16913 4.64001L7.78041 1.89859C7.91893 1.8309 8.08107 1.8309 8.21959 1.89859L13.8309 4.64001Z" stroke="#CED0D6"/>
<path d="M14.2755 8.31655L8.43692 11.1526C8.16105 11.2866 7.83895 11.2866 7.56308 11.1526L1.72447 8.31655" stroke="#CED0D6" stroke-linecap="round"/>
<path d="M14.2755 11.5436L8.43692 14.3797C8.16105 14.5137 7.83895 14.5137 7.56308 14.3797L1.72447 11.5436" stroke="#CED0D6" stroke-linecap="round"/>
</svg>
