<svg width="14" height="14" viewBox="0 0 14 14" fill="none" xmlns="http://www.w3.org/2000/svg">
<path d="M4.14648 7.14645C4.34175 6.95118 4.65825 6.95118 4.85352 7.14645L7.85352 10.1464C8.04878 10.3417 8.04878 10.6582 7.85352 10.8535L4.85352 13.8535C4.65825 14.0487 4.34175 14.0487 4.14648 13.8535C3.95122 13.6582 3.95122 13.3417 4.14648 13.1464L6.29297 11H0.5C0.223858 11 0 10.7761 0 10.5C0 10.2238 0.223858 9.99996 0.5 9.99996H6.29297L4.14648 7.85348C3.95122 7.65822 3.95122 7.34171 4.14648 7.14645Z" fill="#548AF7"/>
<path d="M9.85352 0.146447C9.65825 -0.0488155 9.34175 -0.0488155 9.14648 0.146447L6.14648 3.14645C5.95122 3.34171 5.95122 3.65822 6.14648 3.85348L9.14648 6.85348C9.34175 7.04874 9.65825 7.04874 9.85352 6.85348C10.0488 6.65822 10.0488 6.34171 9.85352 6.14645L7.70703 3.99996H13.5C13.7761 3.99996 14 3.7761 14 3.49996C14 3.22382 13.7761 2.99996 13.5 2.99996H7.70703L9.85352 0.853478C10.0488 0.658216 10.0488 0.341709 9.85352 0.146447Z" fill="#548AF7"/>
</svg>
