<svg width="16" height="16" viewBox="0 0 16 16" fill="none" xmlns="http://www.w3.org/2000/svg">
<path d="M5.14648 8.14645C5.34175 7.95118 5.65825 7.95118 5.85352 8.14645L9.20703 11.5L5.85352 14.8535C5.65825 15.0487 5.34175 15.0487 5.14648 14.8535C4.95122 14.6582 4.95122 14.3417 5.14648 14.1464L7.29297 12H0.5C0.223858 12 0 11.7761 0 11.5C0 11.2238 0.223858 11 0.5 11H7.29297L5.14648 8.85348C4.95122 8.65822 4.95122 8.34171 5.14648 8.14645Z" fill="#CED0D6"/>
<path d="M10.8535 1.14645C10.6583 0.951184 10.3417 0.951184 10.1465 1.14645L6.79297 4.49996L10.1465 7.85348C10.3417 8.04874 10.6583 8.04874 10.8535 7.85348C11.0488 7.65822 11.0488 7.34171 10.8535 7.14645L8.70703 4.99996H15.5C15.7761 4.99996 16 4.7761 16 4.49996C16 4.22382 15.7761 3.99996 15.5 3.99996H8.70703L10.8535 1.85348C11.0488 1.65822 11.0488 1.34171 10.8535 1.14645Z" fill="#CED0D6"/>
</svg>
