<svg width="16" height="16" viewBox="0 0 16 16" fill="none" xmlns="http://www.w3.org/2000/svg">
<rect x="2.5" y="3.5" width="9" height="10" rx="1.5" stroke="#CED0D6"/>
<rect x="5" y="10" width="4" height="1" rx="0.5" fill="#CED0D6"/>
<rect x="5" y="8" width="4" height="1" rx="0.5" fill="#CED0D6"/>
<rect x="5" y="6" width="4" height="1" rx="0.5" fill="#CED0D6"/>
<path d="M11.5998 1C12.9252 1.00012 14.0002 2.07498 14.0002 3.40039V9.59961C14.0002 10.4008 13.6055 11.1079 13.0022 11.5439V4C13.0022 3.9876 13.0004 3.97524 13.0002 3.96289V3.40039C13.0002 2.62727 12.3729 2.00012 11.5998 2H4.45335C4.84407 1.45778 5.45398 1.08394 6.15452 1.0127L6.40061 1H11.5998Z" fill="#CED0D6"/>
</svg>
