<svg width="16" height="16" viewBox="0 0 16 16" fill="none" xmlns="http://www.w3.org/2000/svg">
<path d="M3.14644 9.14648C2.95118 9.34175 2.95119 9.65825 3.14644 9.85352L7.14644 13.8535C7.24021 13.9473 7.36735 14 7.49996 14C7.63257 14 7.75971 13.9473 7.85347 13.8535L11.8535 9.85352C12.0487 9.65825 12.0487 9.34175 11.8535 9.14648C11.6582 8.95123 11.3417 8.95123 11.1464 9.14648L7.99996 12.293L7.99996 2.5C7.99996 2.22386 7.7761 2 7.49996 2C7.22382 2 6.99996 2.22386 6.99996 2.5L6.99996 12.293L3.85347 9.14648C3.65821 8.95123 3.34171 8.95123 3.14644 9.14648Z" fill="#CED0D6"/>
</svg>
