<svg width="16" height="16" viewBox="0 0 16 16" fill="none" xmlns="http://www.w3.org/2000/svg">
<path d="M10.8536 7.64648C11.0488 7.84173 11.0488 8.15827 10.8536 8.35352L8.35362 10.8535C8.15838 11.0487 7.84185 11.0487 7.64659 10.8535L5.14659 8.35352C4.95133 8.15825 4.95133 7.84175 5.14659 7.64648C5.34186 7.45129 5.65838 7.45125 5.85362 7.64648L7.50011 9.29297L7.50011 2.5C7.50011 2.22386 7.72396 2 8.00011 2C8.27625 2 8.50011 2.22386 8.50011 2.5L8.50011 9.29297L10.1466 7.64648C10.3418 7.45134 10.6584 7.45138 10.8536 7.64648Z" fill="#CED0D6"/>
<rect width="12" height="1" rx="0.5" transform="matrix(1 0 0 -1 2 14)" fill="#CED0D6"/>
<rect x="2" y="10" width="1" height="4" rx="0.5" fill="#CED0D6"/>
<rect x="13" y="10" width="1" height="4" rx="0.5" fill="#CED0D6"/>
</svg>
