<svg width="16" height="16" viewBox="0 0 16 16" fill="none" xmlns="http://www.w3.org/2000/svg">
<path fill-rule="evenodd" clip-rule="evenodd" d="M3.03628 4.12842C3.39071 4.34278 3.50427 4.80387 3.28991 5.15831C2.78866 5.9871 2.5 6.9587 2.5 8C2.5 9.04216 2.78913 10.0145 3.29115 10.8437C3.50566 11.1981 3.39231 11.6592 3.03797 11.8737C2.68363 12.0883 2.22248 11.9749 2.00797 11.6206C1.36812 10.5636 1 9.32366 1 8C1 6.67743 1.36751 5.4384 2.00639 4.38204C2.22075 4.02761 2.68185 3.91406 3.03628 4.12842Z" fill="#BD5757"/>
<path fill-rule="evenodd" clip-rule="evenodd" d="M4.12679 12.9625C4.34126 12.6081 4.8024 12.4947 5.15676 12.7092C5.98589 13.211 6.95804 13.5 7.99997 13.5C9.03981 13.5 10.0101 13.2122 10.8382 12.7122C11.1927 12.4981 11.6538 12.612 11.8679 12.9666C12.082 13.3212 11.9681 13.7822 11.6135 13.9963C10.5581 14.6335 9.32068 15 7.99997 15C6.67659 15 5.43686 14.632 4.38008 13.9924C4.02572 13.778 3.91231 13.3168 4.12679 12.9625Z" fill="#9C4E4E"/>
<path fill-rule="evenodd" clip-rule="evenodd" d="M12.9608 4.12465C13.3151 3.91002 13.7762 4.02322 13.9909 4.37749C14.6315 5.43484 15 6.67552 15 8C15 9.32338 14.6321 10.5631 13.9925 11.6199C13.778 11.9743 13.3169 12.0877 12.9625 11.8732C12.6081 11.6587 12.4947 11.1976 12.7092 10.8432C13.211 10.0141 13.5 9.04194 13.5 8C13.5 6.9572 13.2105 5.98431 12.708 5.15473C12.4933 4.80046 12.6065 4.33928 12.9608 4.12465Z" fill="#7A4343"/>
<path fill-rule="evenodd" clip-rule="evenodd" d="M7.99998 2.5C6.9591 2.5 5.98787 2.78843 5.15929 3.28931C4.80481 3.50359 4.34373 3.38994 4.12945 3.03546C3.91517 2.68098 4.02882 2.21991 4.38329 2.00562C5.43938 1.36722 6.67794 1 7.99998 1C9.32015 1 10.5571 1.36618 11.6122 2.00292C11.9668 2.21694 12.0808 2.67793 11.8668 3.03257C11.6528 3.38721 11.1918 3.5012 10.8372 3.28718C10.0094 2.78761 9.03941 2.5 7.99998 2.5Z" fill="#DB5C5C"/>
<path d="M9 5C9 4.44772 8.55228 4 8 4C7.44772 4 7 4.44772 7 5V7.5C7 8.05229 7.44772 8.5 8 8.5C8.55229 8.5 9 8.05228 9 7.5L9 5Z" fill="#DB5C5C"/>
<path d="M8 12C8.55228 12 9 11.5523 9 11C9 10.4477 8.55228 10 8 10C7.44772 10 7 10.4477 7 11C7 11.5523 7.44772 12 8 12Z" fill="#DB5C5C"/>
</svg>
