<svg width="16" height="16" viewBox="0 0 16 16" fill="none" xmlns="http://www.w3.org/2000/svg">
<path fill-rule="evenodd" clip-rule="evenodd" d="M7.99988 2.07295C8.20184 2.07295 8.38398 2.19446 8.46154 2.38094L9.93128 5.91461L13.7462 6.22045C13.9475 6.23659 14.1193 6.37226 14.1817 6.56434C14.2442 6.75642 14.1849 6.96719 14.0315 7.09858L11.1249 9.58835L12.0129 13.311C12.0598 13.5075 11.9839 13.7129 11.8205 13.8316C11.6571 13.9503 11.4383 13.959 11.266 13.8538L7.99988 11.8588L4.73379 13.8538C4.56144 13.959 4.34267 13.9503 4.17927 13.8316C4.01588 13.7129 3.93995 13.5075 3.98681 13.311L4.87481 9.58835L1.96826 7.09858C1.81488 6.96719 1.7556 6.75642 1.81801 6.56434C1.88042 6.37226 2.05226 6.23659 2.25358 6.22045L6.06848 5.91461L7.53822 2.38094C7.61578 2.19446 7.79791 2.07295 7.99988 2.07295Z" fill="#43454A"/>
<path fill-rule="evenodd" clip-rule="evenodd" d="M7.99982 2.073C8.20178 2.073 8.38392 2.1945 8.46148 2.38098L9.93122 5.91466L13.7461 6.2205C13.9474 6.23663 14.1193 6.37231 14.1817 6.56439C14.2441 6.75647 14.1848 6.96723 14.0314 7.09862L11.1249 9.58839L12.0129 13.3111C12.0597 13.5075 11.9838 13.7129 11.8204 13.8316C11.657 13.9503 11.4383 13.9591 11.2659 13.8538L7.99982 11.8589L4.73373 13.8538C4.56138 13.9591 4.34261 13.9503 4.17921 13.8316C4.01582 13.7129 3.93989 13.5075 3.98675 13.3111L4.87475 9.58839L1.9682 7.09862C1.81482 6.96723 1.75554 6.75647 1.81795 6.56439C1.88036 6.37231 2.0522 6.23663 2.25352 6.2205L6.06842 5.91466L7.53816 2.38098C7.61572 2.1945 7.79785 2.073 7.99982 2.073ZM7.99982 3.87498L6.87446 6.58067C6.80245 6.75379 6.63965 6.87207 6.45275 6.88705L3.53173 7.12123L5.75724 9.02762C5.89964 9.14959 5.96182 9.34098 5.91832 9.52336L5.23839 12.3738L7.73919 10.8463C7.8992 10.7486 8.10044 10.7486 8.26045 10.8463L10.7612 12.3738L10.0813 9.52336C10.0378 9.34098 10.1 9.14959 10.2424 9.02762L12.4679 7.12123L9.54688 6.88705C9.35999 6.87207 9.19718 6.75379 9.12518 6.58067L7.99982 3.87498Z" fill="#CED0D6"/>
</svg>
