<svg width="16" height="16" viewBox="0 0 16 16" fill="none" xmlns="http://www.w3.org/2000/svg">
<path d="M13 8.12125V10C13 10.5523 12.5523 11 12 11H7C6.79698 11 6.59878 11.0618 6.43173 11.1772L3 13.5472V5C3 4.44772 3.44772 4 4 4H8.8786L9.8786 3H4C2.89543 3 2 3.89543 2 5V14.5002C2 14.9032 2.45247 15.1406 2.78414 14.9116L7 12H12C13.1046 12 14 11.1046 14 10V7.12124L13 8.12125Z" fill="#CED0D6"/>
<path fill-rule="evenodd" clip-rule="evenodd" d="M14.4122 1.29492C14.0217 0.904398 13.3885 0.904399 12.998 1.29492L11.6466 2.64628L8 6.29289V9H10.7071L15.7051 4.00203C16.0956 3.6115 16.0956 2.97834 15.7051 2.58782L14.4122 1.29492ZM14 4.29289L14.998 3.29492L13.7051 2.00203L12.7071 3L14 4.29289ZM12 3.70711L13.2929 5L10.2929 8H9V6.70711L12 3.70711Z" fill="#CED0D6"/>
</svg>
