<svg width="14" height="14" viewBox="0 0 14 14" fill="none" xmlns="http://www.w3.org/2000/svg">
<path d="M7.85742 1.65039L7.87012 1.66309C7.87749 1.67073 7.88781 1.68204 7.90137 1.69629C7.92859 1.72491 7.96803 1.76665 8.01758 1.82031C8.11677 1.92775 8.2575 2.08367 8.42578 2.2793C8.76191 2.67006 9.21131 3.22318 9.66113 3.87109C10.5423 5.14036 11.5 6.87593 11.5 8.5C11.5 10.8516 9.41301 12.5 7 12.5C4.58698 12.5 2.5 10.8516 2.5 8.5C2.5 7.43076 2.90969 6.22867 3.29004 5.33203C3.4836 4.87575 3.67628 4.48187 3.82129 4.20215C3.89391 4.06208 3.95506 3.94972 3.99805 3.87207C4.01954 3.83324 4.03692 3.80315 4.04883 3.78223C4.05478 3.77177 4.05922 3.76351 4.0625 3.75781C4.06414 3.75497 4.06547 3.7526 4.06641 3.75098L4.06738 3.74902V3.74805L4.39453 3.1875L5.83105 4.62402L7.04004 1.80273L7.33496 1.11523L7.85742 1.65039Z" stroke="#DB5C5C"/>
<path d="M5.5 10C5.5097 9.15096 6.29769 8.2022 6.9999 7.5C7.7021 8.2022 8.4903 9.15096 8.5 10" stroke="#DB5C5C" stroke-linecap="round"/>
</svg>
