<svg width="16" height="16" viewBox="0 0 16 16" fill="none" xmlns="http://www.w3.org/2000/svg">
<path d="M6.03809 2C6.29849 2 6.54868 2.10166 6.73535 2.2832L8.5 4H13C14.1046 4 15 4.89543 15 6V8.75781C14.2849 8.27917 13.4251 8 12.5 8C10.0147 8 8 10.0147 8 12.5C8 13.0262 8.09186 13.5307 8.25781 14H2.75C1.78364 14 1.00023 13.1645 1 12.1338V3.86621C1.00023 2.83549 1.78364 2 2.75 2H6.03809Z" fill="#25324D"/>
<path d="M6.03809 2C6.29849 2 6.54868 2.10166 6.73535 2.2832L8.5 4H13C14.1046 4 15 4.89543 15 6V8.75781C14.6916 8.55135 14.3559 8.38267 14 8.25684V6C14 5.44772 13.5523 5 13 5H8.09375L7.80273 4.7168L6.03809 3H2.75C2.3957 3 2.00022 3.32606 2 3.86621V12.1338C2.00022 12.6739 2.3957 13 2.75 13H8.02832C8.06668 13.3469 8.14518 13.6815 8.25781 14H2.75C1.84391 14 1.09841 13.2655 1.00879 12.3242L1 12.1338V3.86621C1.00023 2.83549 1.78364 2 2.75 2H6.03809Z" fill="#548AF7"/>
<path d="M13.0001 9.5C13.0001 9.22386 12.7762 9 12.5001 9C12.2239 9 12.0001 9.22386 12.0001 9.5V10.5C12.0001 10.7761 12.2239 11 12.5001 11C12.7762 11 13.0001 10.7761 13.0001 10.5V9.5Z" fill="#548AF7"/>
<path d="M10.152 10.567C9.91286 10.4289 9.60707 10.5109 9.46899 10.75C9.33092 10.9891 9.41286 11.2949 9.65201 11.433L10.5177 11.9328C10.7569 12.0709 11.0627 11.989 11.2008 11.7498C11.3388 11.5107 11.2569 11.2049 11.0177 11.0668L10.152 10.567Z" fill="#548AF7"/>
<path d="M15.3481 11.433C15.5872 11.2949 15.6692 10.9891 15.5311 10.75C15.393 10.5109 15.0872 10.4289 14.8481 10.567L13.9824 11.0668C13.7433 11.2049 13.6613 11.5107 13.7994 11.7498C13.9375 11.989 14.2433 12.0709 14.4824 11.9328L15.3481 11.433Z" fill="#548AF7"/>
<path d="M11.0177 13.9331C11.2569 13.7951 11.3388 13.4893 11.2007 13.2501C11.0627 13.011 10.7569 12.9291 10.5177 13.0671L9.65194 13.567C9.41279 13.7051 9.33086 14.0109 9.46893 14.25C9.607 14.4891 9.91279 14.5711 10.1519 14.433L11.0177 13.9331Z" fill="#548AF7"/>
<path d="M14.4824 13.0672C14.2433 12.9291 13.9375 13.011 13.7994 13.2502C13.6613 13.4893 13.7433 13.7951 13.9824 13.9332L14.8482 14.433C15.0873 14.5711 15.3931 14.4891 15.5312 14.25C15.6692 14.0109 15.5873 13.7051 15.3482 13.567L14.4824 13.0672Z" fill="#548AF7"/>
<path d="M13.0001 14.5C13.0001 14.2239 12.7762 14 12.5001 14C12.2239 14 12.0001 14.2239 12.0001 14.5V15.5C12.0001 15.7761 12.2239 16 12.5001 16C12.7762 16 13.0001 15.7761 13.0001 15.5V14.5Z" fill="#548AF7"/>
<path d="M12.5 13.5C13.0523 13.5 13.5 13.0523 13.5 12.5C13.5 11.9477 13.0523 11.5 12.5 11.5C11.9477 11.5 11.5 11.9477 11.5 12.5C11.5 13.0523 11.9477 13.5 12.5 13.5Z" fill="#548AF7"/>
</svg>
