<svg width="16" height="16" viewBox="0 0 16 16" fill="none" xmlns="http://www.w3.org/2000/svg">
<circle cx="8" cy="8" r="6.5" fill="#45322B" stroke="#C77D55"/>
<path d="M7.50009 11.3709H8.50009V13H7.50009V11.3709ZM7.50009 3.00002H8.50009V4.6391H7.50009V3.00002ZM7.90999 11.5164C7.43792 11.5164 7.0192 11.4307 6.65384 11.2593C6.28847 11.0847 6.00232 10.8422 5.79539 10.5318C5.59169 10.2182 5.48984 9.85932 5.48984 9.45515H6.48409C6.48409 9.68795 6.5439 9.89488 6.66354 10.0759C6.7864 10.257 6.95615 10.3993 7.17279 10.5027C7.39265 10.603 7.64324 10.6531 7.92454 10.6531C8.19937 10.6531 8.44187 10.6062 8.65204 10.5124C8.8622 10.4187 9.02387 10.2877 9.13704 10.1196C9.25344 9.95147 9.31164 9.75747 9.31164 9.5376C9.31164 9.25953 9.22757 9.02188 9.05944 8.82465C8.89454 8.62418 8.67305 8.4997 8.39499 8.4512L7.26979 8.26205C6.94322 8.20385 6.65707 8.08907 6.41134 7.9177C6.16884 7.7431 5.98292 7.52647 5.85359 7.2678C5.72425 7.0059 5.65959 6.72137 5.65959 6.4142C5.65959 6.04883 5.75497 5.72065 5.94574 5.42965C6.1365 5.13865 6.40164 4.9107 6.74114 4.7458C7.08387 4.57767 7.46864 4.4936 7.89544 4.4936C8.33517 4.4936 8.7264 4.57605 9.06914 4.74095C9.41187 4.90262 9.67862 5.12895 9.86939 5.41995C10.0602 5.70772 10.1555 6.03752 10.1555 6.40935H9.16129C9.16129 6.20565 9.10794 6.02458 9.00124 5.86615C8.89777 5.70448 8.75065 5.58 8.55989 5.4927C8.37235 5.40217 8.15572 5.3569 7.90999 5.3569C7.66102 5.3569 7.44115 5.40055 7.25039 5.48785C7.06285 5.57192 6.91574 5.69155 6.80904 5.84675C6.70557 6.00195 6.65384 6.18302 6.65384 6.38995C6.65384 6.63245 6.73144 6.841 6.88664 7.0156C7.04184 7.1902 7.24715 7.30013 7.50259 7.3454L8.62779 7.53455C8.95435 7.59275 9.24535 7.71723 9.50079 7.908C9.75945 8.09877 9.9583 8.3348 10.0973 8.6161C10.2396 8.8974 10.3107 9.19325 10.3107 9.50365C10.3107 9.88195 10.2089 10.2247 10.0052 10.5318C9.80472 10.8358 9.5218 11.0767 9.15644 11.2545C8.79107 11.4291 8.37559 11.5164 7.90999 11.5164Z" fill="#C77D55"/>
</svg>
