<svg width="16" height="16" viewBox="0 0 16 16" fill="none" xmlns="http://www.w3.org/2000/svg">
<path d="M12 10H13C13.5523 10 14 10.4477 14 11V14C14 14.5177 13.6066 14.9438 13.1025 14.9951L13 15H9.99998L9.89744 14.9951C9.42701 14.9472 9.05276 14.573 9.00486 14.1026L8.99998 14V11C8.99998 10.4477 9.44769 10 9.99998 10H11V8.50002H4.99998V10H5.99998C6.55226 10 6.99998 10.4477 6.99998 11V14C6.99998 14.5177 6.60665 14.9438 6.10252 14.9951L5.99998 15H2.99998L2.89744 14.9951C2.39331 14.9438 1.99998 14.5177 1.99998 14V11C1.99998 10.4477 2.44769 10 2.99998 10H3.99998V8.50002C3.99998 7.94773 4.44769 7.50002 4.99998 7.50002H7.40037V6.00002H6.49998L6.39744 5.99513C5.92701 5.94723 5.55276 5.57298 5.50486 5.10255L5.49998 5.00002V2.00002C5.49998 1.44773 5.94769 1.00002 6.49998 1.00002H9.49998C10.0523 1.00002 10.5 1.44773 10.5 2.00002V5.00002C10.5 5.51769 10.1066 5.9438 9.60252 5.99513L9.49998 6.00002H8.40037V7.50002H11C11.5523 7.50002 12 7.94773 12 8.50002V10ZM2.99998 14H5.99998V11H2.99998V14ZM9.99998 14H13V11H9.99998V14ZM6.49998 5.00002H9.49998V2.00002H6.49998V5.00002Z" fill="#CED0D6"/>
</svg>
