<svg width="16" height="16" viewBox="0 0 16 16" fill="none" xmlns="http://www.w3.org/2000/svg">
<path d="M7.66797 2.63184C7.85735 2.46368 8.14265 2.46368 8.33203 2.63184L13.332 7.0752C13.4388 7.17008 13.5 7.30638 13.5 7.44922V13C13.5 13.2761 13.2761 13.5 13 13.5H10C9.72386 13.5 9.5 13.2761 9.5 13V11C9.5 10.1716 8.82843 9.5 8 9.5C7.17157 9.5 6.5 10.1716 6.5 11V13C6.5 13.2761 6.27614 13.5 6 13.5H3C2.72386 13.5 2.5 13.2761 2.5 13V7.44922C2.5 7.30638 2.5612 7.17008 2.66797 7.0752L7.66797 2.63184Z" fill="#43454A" stroke="#CED0D6" stroke-linecap="round" stroke-linejoin="round"/>
</svg>
