<svg width="16" height="16" viewBox="0 0 16 16" fill="none" xmlns="http://www.w3.org/2000/svg">
<path d="M7.50004 9C7.46737 9 7.43454 8.99758 7.40238 8.99121C7.35129 8.98111 7.30401 8.96091 7.2598 8.93652C7.21949 8.91431 7.18071 8.8877 7.14652 8.85352C7.11267 8.81966 7.08661 8.78109 7.06449 8.74121C7.03996 8.69701 7.02003 8.64976 7.0098 8.59863C7.00329 8.56611 7.00004 8.53305 7.00004 8.5V4.5C7.00004 4.22386 7.2239 4 7.50004 4C7.77618 4 8.00004 4.22386 8.00004 4.5V7.29297L13.1465 2.14648C13.3418 1.95122 13.6583 1.95122 13.8536 2.14648C14.0488 2.34175 14.0488 2.65825 13.8536 2.85352L8.70707 8H11.5C11.7762 8 12 8.22386 12 8.5C12 8.77614 11.7762 9 11.5 9H7.50004Z" fill="#CED0D6"/>
<path d="M2.5 4.5V12C2.5 12.8284 3.17157 13.5 4 13.5H11.5" stroke="#CED0D6" stroke-linecap="round"/>
</svg>
