<svg width="16" height="16" viewBox="0 0 16 16" fill="none" xmlns="http://www.w3.org/2000/svg">
<rect x="5.70135" y="12" width="4.6" height="1" fill="#CED0D6"/>
<path d="M6 14H10V14C10 14.5523 9.55228 15 9 15H7C6.44772 15 6 14.5523 6 14V14Z" fill="#CED0D6"/>
<mask id="path-3-inside-1_22_35177" fill="white">
<path d="M7.99982 0.500015C10.6507 0.500015 12.7995 2.64894 12.7996 5.29982C12.7996 6.87463 12.0414 8.27222 10.8699 9.14748L10.4998 11H5.49982L5.12872 9.14748C3.95774 8.27218 3.20001 6.87424 3.20001 5.29982C3.20012 2.64901 5.34901 0.500121 7.99982 0.500015Z"/>
</mask>
<path d="M7.99982 0.500015V-0.499985H7.99978L7.99982 0.500015ZM12.7996 5.29982H13.7996V5.29978L12.7996 5.29982ZM10.8699 9.14748L10.2714 8.34638L9.9644 8.57575L9.88931 8.95156L10.8699 9.14748ZM10.4998 11V12H11.3198L11.4804 11.1959L10.4998 11ZM5.49982 11L4.5193 11.1964L4.68027 12H5.49982V11ZM5.12872 9.14748L6.10924 8.95106L6.03405 8.57571L5.72744 8.34651L5.12872 9.14748ZM3.20001 5.29982L2.20001 5.29978V5.29982H3.20001ZM7.99982 0.500015V1.50002C10.0984 1.50002 11.7995 3.2012 11.7996 5.29986L12.7996 5.29982L13.7996 5.29978C13.7995 2.09669 11.203 -0.499985 7.99982 -0.499985V0.500015ZM12.7996 5.29982H11.7996C11.7996 6.54594 11.201 7.65181 10.2714 8.34638L10.8699 9.14748L11.4685 9.94858C12.8818 8.89264 13.7996 7.20332 13.7996 5.29982H12.7996ZM10.8699 9.14748L9.88931 8.95156L9.5192 10.8041L10.4998 11L11.4804 11.1959L11.8506 9.34339L10.8699 9.14748ZM10.4998 11V10H5.49982V11V12H10.4998V11ZM5.49982 11L6.48034 10.8036L6.10924 8.95106L5.12872 9.14748L4.1482 9.34389L4.5193 11.1964L5.49982 11ZM5.12872 9.14748L5.72744 8.34651C4.79835 7.65203 4.20001 6.54583 4.20001 5.29982H3.20001H2.20001C2.20001 7.20265 3.11714 8.89233 4.53001 9.94844L5.12872 9.14748ZM3.20001 5.29982L4.20001 5.29986C4.2001 3.2013 5.9013 1.5001 7.99986 1.50002L7.99982 0.500015L7.99978 -0.499985C4.79671 -0.499857 2.20014 2.09671 2.20001 5.29978L3.20001 5.29982Z" fill="#CED0D6" mask="url(#path-3-inside-1_22_35177)"/>
</svg>
