<svg width="16" height="16" viewBox="0 0 16 16" fill="none" xmlns="http://www.w3.org/2000/svg">
<path d="M1.1464 9.94629C0.951169 10.1415 0.951234 10.4581 1.1464 10.6533L4.49991 14.0068L7.85343 10.6533C8.04859 10.458 8.04866 10.1415 7.85343 9.94629C7.65819 9.75116 7.34164 9.75116 7.1464 9.94629L4.99991 12.0928L4.99991 2.5C4.99991 2.22386 4.77606 2 4.49991 2C4.22377 2 3.99991 2.22386 3.99991 2.5L3.99991 12.0928L1.85343 9.94629C1.65819 9.75116 1.34164 9.75116 1.1464 9.94629Z" fill="#CED0D6"/>
<path d="M11.5 2C11.7761 2 12 2.22386 12 2.5V3.5C12 3.52163 11.9958 3.54257 11.9932 3.56348C12.859 3.7833 13.5 4.56581 13.5 5.5C13.5 6.43411 12.8589 7.21565 11.9932 7.43555C11.9959 7.45676 12 7.47804 12 7.5V8.5C12 8.52163 11.9958 8.54257 11.9932 8.56348C12.859 8.7833 13.5 9.56581 13.5 10.5C13.5 11.4341 12.8589 12.2156 11.9932 12.4355C11.9959 12.4568 12 12.478 12 12.5V13.5C12 13.7761 11.7761 14 11.5 14C11.2239 14 11 13.7761 11 13.5V12.5C11 12.4781 11.0031 12.4567 11.0059 12.4355C10.1406 12.2153 9.5 11.4338 9.5 10.5C9.5 9.56614 10.1405 8.78362 11.0059 8.56348C11.0032 8.54261 11 8.52158 11 8.5V7.5C11 7.47808 11.0031 7.45672 11.0059 7.43555C10.1406 7.21532 9.5 6.43378 9.5 5.5C9.5 4.56614 10.1405 3.78362 11.0059 3.56348C11.0032 3.54261 11 3.52158 11 3.5V2.5C11 2.22386 11.2239 2 11.5 2ZM11.5 9.5C10.9477 9.5 10.5 9.94772 10.5 10.5C10.5 11.0523 10.9477 11.5 11.5 11.5C12.0523 11.5 12.5 11.0523 12.5 10.5C12.5 9.94772 12.0523 9.5 11.5 9.5ZM11.5 4.5C10.9477 4.5 10.5 4.94772 10.5 5.5C10.5 6.05228 10.9477 6.5 11.5 6.5C12.0523 6.5 12.5 6.05228 12.5 5.5C12.5 4.94772 12.0523 4.5 11.5 4.5Z" fill="#CED0D6"/>
</svg>
