<svg width="16" height="16" viewBox="0 0 16 16" fill="none" xmlns="http://www.w3.org/2000/svg">
<g clip-path="url(#clip0_22_31943)">
<path d="M13 2C14.1046 2 15 2.89543 15 4V8.75781C14.2849 8.27917 13.4251 8 12.5 8C10.0147 8 8 10.0147 8 12.5C8 13.0262 8.09186 13.5307 8.25781 14H3C1.89543 14 1 13.1046 1 12V4C1 2.89543 1.89543 2 3 2H13Z" fill="#43454A"/>
<path d="M13 2C14.1046 2 15 2.89543 15 4V8.75781C14.6916 8.55135 14.3559 8.38267 14 8.25684V4C14 3.44772 13.5523 3 13 3H3C2.44772 3 2 3.44772 2 4V12C2 12.5523 2.44772 13 3 13H8.02832C8.06668 13.3469 8.14518 13.6815 8.25781 14H3C1.89543 14 1 13.1046 1 12V4C1 2.89543 1.89543 2 3 2H13Z" fill="#CED0D6"/>
<path d="M4 5.5H5" stroke="#CED0D6" stroke-linecap="round"/>
<path d="M7 5.5H8" stroke="#CED0D6" stroke-linecap="round"/>
<path fill-rule="evenodd" clip-rule="evenodd" d="M12.5 16C14.433 16 16 14.433 16 12.5C16 10.567 14.433 9 12.5 9C10.567 9 9 10.567 9 12.5C9 14.433 10.567 16 12.5 16ZM13 10.5C13 10.2239 12.7761 10 12.5 10C12.2239 10 12 10.2239 12 10.5V12.5C12 12.6326 12.0527 12.7598 12.1464 12.8536L13.5607 14.2678C13.7559 14.463 14.0725 14.463 14.2678 14.2678C14.463 14.0725 14.463 13.7559 14.2678 13.5607L13 12.2929V10.5Z" fill="#548AF7"/>
</g>
<defs>
<clipPath id="clip0_22_31943">
<rect width="16" height="16" fill="white"/>
</clipPath>
</defs>
</svg>
