<svg width="16" height="16" viewBox="0 0 16 16" fill="none" xmlns="http://www.w3.org/2000/svg">
<path d="M6.03809 2C6.29849 2 6.54868 2.10166 6.73535 2.2832L8.5 4H13C14.1046 4 15 4.89543 15 6V8H6C5.44772 8 5 8.44772 5 9V14H2.75C1.78364 14 1.00023 13.1645 1 12.1338V3.86621C1.00023 2.83549 1.78364 2 2.75 2H6.03809Z" fill="#43454A"/>
<path d="M6.03809 2C6.29849 2 6.54868 2.10166 6.73535 2.2832L8.5 4H13C14.1046 4 15 4.89543 15 6V8H14V6C14 5.44772 13.5523 5 13 5H8.09375L7.80273 4.7168L6.03809 3H2.75C2.3957 3 2.00022 3.32606 2 3.86621V12.1338C2.00022 12.6739 2.3957 13 2.75 13H5V14H2.75C1.84391 14 1.09841 13.2655 1.00879 12.3242L1 12.1338V3.86621C1.00023 2.83549 1.78364 2 2.75 2H6.03809Z" fill="#CED0D6"/>
<path d="M7 9.5H12.5C12.7761 9.5 13 9.72386 13 10V12.25C13 14.0449 11.5449 15.5 9.75 15.5C7.95507 15.5 6.5 14.0449 6.5 12.25V10C6.5 9.72386 6.72386 9.5 7 9.5Z" fill="#25324D" stroke="#548AF7"/>
<path d="M14 9.5C14.8284 9.5 15.5 10.1716 15.5 11C15.5 11.8284 14.8284 12.5 14 12.5H13V9.5H14Z" stroke="#548AF7"/>
</svg>
