<svg width="16" height="16" viewBox="0 0 16 16" fill="none" xmlns="http://www.w3.org/2000/svg">
<path d="M14.5 11.0869L11.0869 14.5L4.91309 14.5L1.5 11.0869L1.5 4.91309L4.91309 1.5L11.0869 1.5L14.5 4.91309L14.5 11.0869Z" stroke="#DB5C5C"/>
<path d="M5.17157 5.17157C5.36683 4.97631 5.68341 4.97631 5.87867 5.17157L7.99999 7.29289L10.1213 5.17157C10.3166 4.97631 10.6332 4.97631 10.8284 5.17157C11.0237 5.36684 11.0237 5.68342 10.8284 5.87868L8.7071 8L10.8284 10.1213C11.0237 10.3166 11.0237 10.6332 10.8284 10.8284C10.6332 11.0237 10.3166 11.0237 10.1213 10.8284L7.99999 8.70711L5.87867 10.8284C5.68341 11.0237 5.36683 11.0237 5.17157 10.8284C4.9763 10.6332 4.9763 10.3166 5.17157 10.1213L7.29289 8L5.17157 5.87868C4.9763 5.68342 4.9763 5.36684 5.17157 5.17157Z" fill="#DB5C5C"/>
</svg>
