<svg width="16" height="16" viewBox="0 0 16 16" fill="none" xmlns="http://www.w3.org/2000/svg">
<path d="M13.9892 12.2041C13.8937 13.1456 13.1456 13.8938 12.204 13.9893L11.9999 14L3.99992 14C2.9643 14 2.11293 13.2128 2.01067 12.2041L1.99992 12L1.99992 4C1.99992 2.89545 2.89538 2.00003 3.99992 2L11.9999 2L12.204 2.01074C13.2127 2.113 13.9999 2.96435 13.9999 4L13.9999 12L13.9892 12.2041ZM6.99992 3L3.99992 3C3.44767 3.00003 2.99992 3.44773 2.99992 4L2.99992 12C2.99992 12.5523 3.44767 13 3.99992 13L6.99992 13L6.99992 3ZM12.9999 4C12.9999 3.44771 12.5522 3 11.9999 3L7.99992 3L7.99992 7L12.9999 7L12.9999 4ZM7.99992 8L7.99992 13L11.9999 13C12.5522 13 12.9999 12.5523 12.9999 12L12.9999 8L7.99992 8Z" fill="#CED0D6"/>
</svg>
