<svg width="16" height="16" viewBox="0 0 16 16" fill="none" xmlns="http://www.w3.org/2000/svg">
<path d="M12.9498 3.05025C15.6834 5.78392 15.6834 10.2161 12.9498 12.9497C10.2161 15.6834 5.78393 15.6834 3.05026 12.9497C0.316587 10.2161 0.316587 5.78392 3.05026 3.05025C5.78393 0.316583 10.2161 0.316583 12.9498 3.05025Z" fill="#402929"/>
<path fill-rule="evenodd" clip-rule="evenodd" d="M14.9143 6.90481L13.9265 7.06045C13.736 5.85124 13.1756 4.69027 12.2426 3.75736C11.3097 2.82445 10.1488 2.26404 8.93956 2.07352L9.09519 1.0857C10.5063 1.30802 11.8624 1.96287 12.9498 3.05025C14.0371 4.13763 14.692 5.49375 14.9143 6.90481ZM6.90482 1.0857L7.06045 2.07352C5.85125 2.26404 4.69027 2.82445 3.75736 3.75736C2.82446 4.69027 2.26404 5.85124 2.07352 7.06045L1.08571 6.90481C1.30803 5.49375 1.96288 4.13763 3.05026 3.05025C4.13764 1.96287 5.49375 1.30802 6.90482 1.0857ZM1.08571 9.09519C1.30803 10.5063 1.96288 11.8624 3.05026 12.9497C4.13764 14.0371 5.49375 14.692 6.90482 14.9143L7.06045 13.9265C5.85125 13.736 4.69027 13.1755 3.75736 12.2426C2.82446 11.3097 2.26404 10.1488 2.07352 8.93955L1.08571 9.09519ZM9.09519 14.9143L8.93956 13.9265C10.1488 13.736 11.3097 13.1755 12.2426 12.2426C13.1756 11.3097 13.736 10.1488 13.9265 8.93955L14.9143 9.09519C14.692 10.5063 14.0371 11.8624 12.9498 12.9497C11.8624 14.0371 10.5063 14.692 9.09519 14.9143Z" fill="#DB5C5C"/>
<path d="M10.0657 5.24573C9.25361 5.24573 8.636 5.6473 8.29593 6.31537C8.00368 5.64257 7.40552 5.24573 6.6071 5.24573C5.84915 5.24573 5.28147 5.60946 4.96189 6.24862V5.37188H4V10.7543H4.99869V7.59001C4.99869 6.68068 5.5138 6.10775 6.32852 6.10775C7.0749 6.10775 7.50591 6.61761 7.50591 7.43758V10.7543H8.49409V7.59001C8.49409 6.68068 9.01971 6.10775 9.82392 6.10775C10.5756 6.10775 11.0013 6.61761 11.0013 7.43758V10.7543H12V7.35874C12 6.07096 11.2168 5.24573 10.0657 5.24573Z" fill="#DB5C5C"/>
</svg>
