<svg width="16" height="16" viewBox="0 0 16 16" fill="none" xmlns="http://www.w3.org/2000/svg">
<path d="M3.05233 10.4021C2.69928 9.67633 2.49998 8.86182 2.4999 8.00046C2.4999 4.96289 4.96244 2.50036 8.00001 2.50036C8.86167 2.50037 9.67705 2.69818 10.4031 3.0514L3.05233 10.4021ZM12.9484 5.59671C13.3017 6.3228 13.5001 7.1387 13.5001 8.00046C13.4999 11.0378 11.0374 13.5005 8.00001 13.5006C7.13841 13.5006 6.32362 13.3006 5.59764 12.9474L12.9484 5.59671Z" fill="#402929"/>
<path d="M9.64348 3.81099C9.13424 3.61103 8.58018 3.50026 8.00001 3.50025C5.51473 3.50025 3.4998 5.51518 3.4998 8.00046C3.49986 8.58044 3.61136 9.13415 3.81123 9.64324L3.05233 10.4021C2.69928 9.67633 2.49998 8.86182 2.4999 8.00046C2.4999 4.96289 4.96244 2.50036 8.00001 2.50036C8.86167 2.50037 9.67705 2.69818 10.4031 3.0514L9.64348 3.81099ZM12.9484 5.59671C13.3017 6.3228 13.5001 7.1387 13.5001 8.00046C13.4999 11.0378 11.0374 13.5005 8.00001 13.5006C7.13841 13.5006 6.32362 13.3006 5.59764 12.9474L6.35654 12.1885C6.86563 12.3884 7.41933 12.4999 7.99932 12.5C10.4846 12.5 12.4995 10.485 12.4995 7.99977C12.4995 7.41958 12.3888 6.86554 12.1888 6.3563L12.9484 5.59671Z" fill="#DB5C5C"/>
<rect x="13.6569" y="1.63604" width="1" height="17" rx="0.5" transform="rotate(45 13.6569 1.63604)" fill="#CED0D6"/>
</svg>
