<svg width="16" height="16" viewBox="0 0 16 16" fill="none" xmlns="http://www.w3.org/2000/svg">
<path d="M5.14648 14.3536C5.34173 14.5488 5.65825 14.5488 5.85352 14.3536C6.04878 14.1583 6.04878 13.8418 5.85352 13.6465L3.20703 11.0001H10.5C12.9853 11.0001 15 8.98534 15 6.50006C15 4.01478 12.9853 2.00006 10.5 2.00006H5.5C5.22389 2.0001 5 2.22394 5 2.50006C5 2.77617 5.22389 3.00002 5.5 3.00006H10.5C12.433 3.00006 14 4.56706 14 6.50006C14 8.43305 12.433 10.0001 10.5 10.0001H3.20703L5.85352 7.35357C6.04878 7.15831 6.04878 6.8418 5.85352 6.64654C5.65825 6.45132 5.34173 6.45129 5.14648 6.64654L1.29297 10.5001L5.14648 14.3536Z" fill="#CED0D6"/>
</svg>
