<svg width="16" height="16" viewBox="0 0 16 16" fill="none" xmlns="http://www.w3.org/2000/svg">
<g clip-path="url(#clip0_22_22145)">
<path d="M7.5 2.5647C7.99319 4.13826 8.67162 5.38161 9.65527 6.35767C10.6376 7.33239 11.8915 8.00717 13.4834 8.49927C11.8915 8.99133 10.6377 9.66717 9.65527 10.6418C8.6719 11.6176 7.99314 12.8609 7.5 14.4338C7.00684 12.861 6.32905 11.6176 5.3457 10.6418C4.36316 9.66695 3.10889 8.99138 1.5166 8.49927C3.10877 8.00715 4.36323 7.33255 5.3457 6.35767C6.32926 5.38166 7.00684 4.13813 7.5 2.5647Z" stroke="#CED0D6"/>
<path d="M12.9935 4.90712C14.0454 4.90712 14.8981 4.05439 14.8981 3.00251C14.8981 1.95062 14.0454 1.0979 12.9935 1.0979C11.9416 1.0979 11.0889 1.95062 11.0889 3.00251C11.0889 4.05439 11.9416 4.90712 12.9935 4.90712Z" fill="#CED0D6"/>
</g>
<defs>
<clipPath id="clip0_22_22145">
<rect width="16" height="16" fill="white"/>
</clipPath>
</defs>
</svg>
