<svg width="16" height="16" viewBox="0 0 16 16" fill="none" xmlns="http://www.w3.org/2000/svg">
<path d="M1.58609 9.41422L6.58579 14.4139C7.36684 15.195 8.63317 15.195 9.41422 14.4139L14.4139 9.41422C15.195 8.63317 15.195 7.36684 14.4139 6.58579L9.41422 1.58609C8.63317 0.805043 7.36684 0.805043 6.58579 1.58609L1.58609 6.58579C0.805043 7.36684 0.805043 8.63317 1.58609 9.41422Z" fill="#43454A"/>
<path fill-rule="evenodd" clip-rule="evenodd" d="M2.2932 8.70711L7.2929 13.7068C7.68342 14.0973 8.31659 14.0973 8.70711 13.7068L13.7068 8.70711C14.0973 8.31659 14.0973 7.68342 13.7068 7.2929L8.70711 2.2932L9.259 1.74131L8.70711 2.2932C8.31659 1.90267 7.68342 1.90267 7.2929 2.2932L6.58579 1.58609C7.36684 0.805043 8.63317 0.805043 9.41422 1.58609L14.4139 6.58579C15.195 7.36684 15.195 8.63317 14.4139 9.41422L9.41422 14.4139C8.63317 15.195 7.36684 15.195 6.58579 14.4139L1.58609 9.41422C0.805043 8.63317 0.805043 7.36684 1.58609 6.58579L6.58579 1.58609L7.2929 2.2932L2.2932 7.2929C1.90267 7.68342 1.90267 8.31659 2.2932 8.70711Z" fill="#CED0D6"/>
</svg>
