<svg width="16" height="16" viewBox="0 0 16 16" fill="none" xmlns="http://www.w3.org/2000/svg">
<circle cx="8" cy="8" r="6.5" fill="#45322B" stroke="#C77D55"/>
<path d="M8.57063 5C7.72684 5 7.06317 5.37098 6.68247 5.99832V5.12281H5.70001V12H6.70294V9.52032C7.08671 10.1272 7.74168 10.4854 8.57063 10.4854C10.029 10.4854 11.0472 9.36988 11.0472 7.74269C11.0472 6.1155 10.029 5 8.57063 5ZM8.36083 9.5848C7.38349 9.5848 6.70294 8.8326 6.70294 7.74269C6.70294 6.65278 7.38349 5.90058 8.36083 5.90058C9.33305 5.90058 10.0034 6.65278 10.0034 7.74269C10.0034 8.8326 9.33305 9.5848 8.36083 9.5848Z" fill="#C77D55"/>
</svg>
