<svg width="16" height="16" viewBox="0 0 16 16" fill="none" xmlns="http://www.w3.org/2000/svg">
<path d="M8 1C8.27613 1.00001 8.5 1.22387 8.5 1.5V5.5H12.5C12.7761 5.5 13 5.72386 13 6C13 6.27614 12.7761 6.5 12.5 6.5H8.5V10.5C8.5 10.7761 8.27613 11 8 11C7.72386 11 7.5 10.7761 7.5 10.5V6.5H3.5C3.22386 6.5 3 6.27614 3 6C3 5.72386 3.22386 5.5 3.5 5.5H7.5V1.5C7.5 1.22386 7.72386 1 8 1Z" fill="#CED0D6"/>
<rect x="13" y="13" width="1" height="10" rx="0.5" transform="rotate(90 13 13)" fill="#CED0D6"/>
</svg>
