<svg width="16" height="16" viewBox="0 0 16 16" fill="none" xmlns="http://www.w3.org/2000/svg">
<path fill-rule="evenodd" clip-rule="evenodd" d="M6.48154 5.70711L6.26825 7.20016C6.1986 7.68767 5.90219 8.07205 5.53731 8.29289C4.78616 8.74751 4.39944 9.41436 4.19955 10H11.8025C11.6026 9.41434 11.2159 8.74746 10.4647 8.29284C10.0998 8.07201 9.80334 7.68762 9.73369 7.20009L9.52041 5.70711C9.3917 4.80611 10.0908 4 11.001 4V3L5.00098 3V4C5.91112 4 6.61026 4.80611 6.48154 5.70711ZM5.2783 7.05873C5.25561 7.2176 5.15682 7.35428 5.01953 7.43737C3.85066 8.14481 3.35865 9.22759 3.15156 10.0138C3.01088 10.5478 3.44874 11 4.00103 11H12.001C12.5533 11 12.9912 10.5478 12.8505 10.0138C12.6434 9.22757 12.1514 8.14475 10.9824 7.43732C10.8451 7.35423 10.7463 7.21754 10.7236 7.05867L10.5104 5.56569C10.4677 5.26712 10.6994 5 11.001 5C11.5533 5 12.001 4.55228 12.001 4V3C12.001 2.44772 11.5533 2 11.001 2H5.00098C4.44869 2 4.00098 2.44772 4.00098 3V4C4.00098 4.55228 4.44869 5 5.00098 5C5.30257 5 5.53425 5.26712 5.49159 5.56569L5.2783 7.05873Z" fill="#CED0D6"/>
<path d="M7.5 11H8.5V14.5C8.5 14.7761 8.27614 15 8 15C7.72386 15 7.5 14.7761 7.5 14.5V11Z" fill="#CED0D6"/>
</svg>
