<svg width="16" height="16" viewBox="0 0 16 16" fill="none" xmlns="http://www.w3.org/2000/svg">
<path d="M8.5 7.1344C8.79865 7.30729 8.99987 7.62976 9 7.99963C9 8.55192 8.55228 8.99963 8 8.99963C7.44772 8.99963 7 8.55192 7 7.99963C7.00013 7.62976 7.20135 7.30729 7.5 7.1344V5.04163C6.08127 5.27966 5.00018 6.51331 5 7.99963C5 9.65649 6.34315 10.9996 8 10.9996C9.65685 10.9996 11 9.65649 11 7.99963C10.9999 7.2986 10.7575 6.65486 10.3545 6.14417L11.0664 5.43225C11.6487 6.12696 11.9999 7.02228 12 7.99963C12 10.2088 10.2091 11.9996 8 11.9996C5.79086 11.9996 4 10.2088 4 7.99963C4.00018 5.96003 5.52702 4.27794 7.5 4.03186V2.02209C4.42042 2.27622 2.00019 4.85451 2 7.99963C2 11.3133 4.68629 13.9996 8 13.9996C11.3137 13.9996 14 11.3133 14 7.99963C13.9999 6.46991 13.4268 5.074 12.4844 4.01428L13.1934 3.3053C14.3163 4.54687 14.9999 6.19373 15 7.99963C15 11.8656 11.866 14.9996 8 14.9996C4.13401 14.9996 1 11.8656 1 7.99963C1.00019 4.30196 3.86753 1.27558 7.5 1.01917V0.995728H8.5V7.1344Z" fill="#57965C"/>
</svg>
