<svg width="16" height="16" viewBox="0 0 16 16" fill="none" xmlns="http://www.w3.org/2000/svg">
<path fill-rule="evenodd" clip-rule="evenodd" d="M6.40652 1.13693C6.93491 1.04481 7.47033 0.999003 8.00669 1.00002L8.01051 1.00004C8.57815 1.00472 9.14451 1.05468 9.70418 1.14945C10.2421 1.20981 10.7429 1.45457 11.1211 1.84248C11.4975 2.2285 11.7816 2.79518 11.7816 3.34402V6.29583C11.7817 6.86983 11.5575 7.42135 11.1568 7.83234C10.756 8.24337 10.2105 8.48148 9.63656 8.49583L9.62156 8.49602H6.51464C6.16363 8.50255 5.82833 8.64301 5.57744 8.88874C5.32791 9.13314 5.08986 9.45131 5.07468 9.80002V11.3001C5.07468 11.6315 4.89693 11.912 4.56556 11.912H3.47756C2.85908 11.912 2.34586 11.6751 1.962 11.2758C1.59454 10.8936 1.36918 10.3888 1.24106 9.86411C0.920936 8.72275 0.919653 7.51559 1.23721 6.3737C1.35378 5.78903 1.6721 5.26354 2.13698 4.88936C2.60668 4.51131 3.1953 4.31244 3.79783 4.32802H4.35756V3.32802C4.35756 2.85353 4.41651 2.32507 4.78625 1.89425C5.14789 1.47288 5.70727 1.26058 6.40508 1.13718L6.40652 1.13693ZM8.00252 2.0322C7.53688 2.03143 7.0145 2.07124 6.55577 2.15117C5.94213 2.25976 5.72564 2.40738 5.63931 2.50797C5.56105 2.59915 5.5 2.75469 5.5 3.16021C5.5 3.58197 5.5 4.05924 5.5 4.52817C5.5 5.0804 5.05237 5.52808 4.50014 5.52815L3.59966 5.52828C3.59375 5.52828 3.58784 5.52819 3.58193 5.52802C3.26186 5.51855 2.94894 5.62367 2.6995 5.82444C2.41731 6.05156 2.30386 6.33968 2.20909 6.67532C1.94378 7.61492 1.94378 8.60963 2.20909 9.54923C2.29979 9.87044 2.39979 10.1975 2.63722 10.4445C2.79936 10.6131 3.19204 10.712 3.47756 10.712H3.96556V9.80002C3.96556 9.79275 3.96569 9.78549 3.96596 9.77822C3.98993 9.11858 4.26621 8.49331 4.73778 8.03143C5.20936 7.56956 5.84024 7.30634 6.50024 7.29609L6.50956 7.29594L9.7144 7.27957C9.97283 7.2714 10.2182 7.16342 10.3988 6.97817C10.5809 6.79134 10.6829 6.5407 10.6828 6.27976V3.18543C10.6579 2.9261 10.5453 2.68278 10.3631 2.49595C10.1556 2.28318 9.90589 2.19983 9.62156 2.15117C9.12008 2.06534 8.51128 2.0365 8.00252 2.0322Z" fill="#CED0D6"/>
<path fill-rule="evenodd" clip-rule="evenodd" d="M11 4.50001C11 4.16864 10.8503 3.97578 11.1816 3.97578H12.3896C13.0237 3.97578 13.5197 4.2337 13.8761 4.64918C14.2072 5.03523 14.3976 5.53221 14.5193 6.01279C14.8787 7.16664 14.8769 8.40294 14.5139 9.55596L14.5127 9.55985C14.3558 10.0466 14.165 10.5488 13.8457 10.9263C13.4915 11.345 13.0115 11.5758 12.3896 11.5758H11.4296V12.5758C11.4296 13.2374 11.1316 13.7398 10.72 14.0924C10.3293 14.4271 9.83981 14.6271 9.40118 14.7508C8.27402 15.1057 7.06482 15.1049 5.93805 14.7483C5.0688 14.4779 3.96562 13.8511 3.96562 12.5758V11.2558C3.96562 10.9244 4.23425 10.6558 4.56562 10.6558C4.89699 10.6558 5.07466 10.9244 5.07466 11.2558V12.7531C5.07466 13.1731 5.51713 13.5383 6.29564 13.7802L6.29884 13.7812C7.19345 14.0646 8.29632 14.0636 9.19093 13.7802C9.50597 13.6804 9.82607 13.5766 10.0818 13.3575C10.2702 13.1961 10.3721 13.0106 10.3721 12.7521C10.3721 12.4881 10.3721 11.972 10.3721 11.5004C10.3721 10.948 10.8201 10.5002 11.3726 10.5005L12.5 10.501C12.7821 10.501 12.9221 10.4158 13.0399 10.2765C13.1924 10.0963 13.3254 9.79901 13.4803 9.31897C13.7706 8.39531 13.7704 7.15245 13.4797 6.22888C13.3779 5.90572 13.3024 5.56787 13.0755 5.30331C12.9379 5.14279 12.7699 5.0487 12.5 5.0487H11.1816C10.8503 5.0487 11 4.83138 11 4.50001Z" fill="#CED0D6"/>
<path d="M8.21701 11.06C8.41857 11.06 8.61188 11.1401 8.75441 11.2826C8.89694 11.4252 8.97701 11.6185 8.97701 11.82C8.97701 12.0216 8.89694 12.2149 8.75441 12.3574C8.61188 12.5 8.41857 12.58 8.21701 12.58C8.01545 12.58 7.82214 12.5 7.67961 12.3574C7.53708 12.2149 7.45701 12.0216 7.45701 11.82C7.45701 11.6185 7.53708 11.4252 7.67961 11.2826C7.82214 11.1401 8.01545 11.06 8.21701 11.06Z" fill="#CED0D6"/>
<path d="M7.5505 3.60002C7.7012 3.59814 7.84906 3.6411 7.97529 3.72346C8.10151 3.80582 8.2004 3.92384 8.25938 4.06254C8.31837 4.20123 8.33478 4.35433 8.30653 4.50238C8.27829 4.65043 8.20667 4.78673 8.10077 4.89397C7.99487 5.00121 7.85947 5.07455 7.7118 5.10465C7.56412 5.13475 7.41082 5.12027 7.2714 5.06303C7.13197 5.0058 7.01271 4.9084 6.92877 4.78323C6.84483 4.65805 6.80001 4.51074 6.8 4.36002C6.79874 4.26067 6.81722 4.16205 6.85438 4.0699C6.89153 3.97775 6.94661 3.89389 7.01643 3.82319C7.08624 3.75249 7.1694 3.69635 7.26108 3.65804C7.35276 3.61974 7.45114 3.60001 7.5505 3.60002Z" fill="#CED0D6"/>
</svg>
