<svg width="16" height="16" viewBox="0 0 16 16" fill="none" xmlns="http://www.w3.org/2000/svg">
<rect x="5.70135" y="12" width="4.6" height="1" fill="#CED0D6"/>
<path d="M6 14H10V14C10 14.5523 9.55228 15 9 15H7C6.44772 15 6 14.5523 6 14V14Z" fill="#CED0D6"/>
<path d="M7.99976 0.5C10.6507 0.5 12.7995 2.64893 12.7996 5.2998C12.7996 6.87462 12.0414 8.27221 10.8699 9.14746L10.4998 11H5.49976L5.12866 9.14746C3.95768 8.27217 3.19995 6.87422 3.19995 5.2998C3.20006 2.64899 5.34894 0.500106 7.99976 0.5ZM7.99976 7C7.39244 7.00008 6.90036 7.49232 6.90015 8.09961C6.90015 8.70707 7.39231 9.20012 7.99976 9.2002C8.60727 9.2002 9.10034 8.70712 9.10034 8.09961C9.10013 7.49228 8.60714 7 7.99976 7ZM7.99976 2C7.50281 2.00013 7.09937 2.40342 7.09937 2.90039V5.40039C7.09956 5.8972 7.50293 6.30065 7.99976 6.30078C8.49669 6.30078 8.89995 5.89728 8.90015 5.40039V2.90039C8.90015 2.40333 8.49681 2 7.99976 2Z" fill="#DB5C5C"/>
</svg>
