<svg width="16" height="16" viewBox="0 0 16 16" fill="none" xmlns="http://www.w3.org/2000/svg">
<path d="M5.14648 1.64643C5.34173 1.45118 5.65825 1.4512 5.85352 1.64643C6.04878 1.84169 6.04878 2.1582 5.85352 2.35346L3.20703 4.99994H10.5C12.9853 4.99994 15 7.01466 15 9.49994C15 11.9852 12.9853 13.9999 10.5 13.9999H5.5C5.22389 13.9999 5 13.7761 5 13.4999C5 13.2238 5.22389 13 5.5 12.9999H10.5C12.433 12.9999 14 11.4329 14 9.49994C14 7.56695 12.433 5.99994 10.5 5.99994H3.20703L5.85352 8.64643C6.04878 8.84169 6.04878 9.1582 5.85352 9.35346C5.65825 9.54868 5.34173 9.54871 5.14648 9.35346L1.29297 5.49994L5.14648 1.64643Z" fill="#CED0D6"/>
</svg>
