<svg width="16" height="16" viewBox="0 0 16 16" fill="none" xmlns="http://www.w3.org/2000/svg">
<path d="M13 2C14.1046 2 15 2.89543 15 4V8C14.6922 7.7688 14.3571 7.57203 14 7.41602V6H2V12C2 12.5523 2.44772 13 3 13H7.10059C7.17121 13.3479 7.27821 13.6824 7.41699 14H3C1.89543 14 1 13.1046 1 12V4C1 2.89543 1.89543 2 3 2H13ZM3 3C2.44772 3 2 3.44772 2 4V5H14V4C14 3.44772 13.5523 3 13 3H3Z" fill="#CED0D6"/>
<path d="M9.85204 9.46973L12.5951 8.73472C12.7683 8.6884 12.9529 8.73855 13.0792 8.86587L15.1062 10.9109C15.2309 11.0367 15.2797 11.2189 15.2346 11.3901L14.5016 14.1747C14.456 14.3481 14.3212 14.4838 14.148 14.5303L11.405 15.2653C11.2317 15.3116 11.0472 15.2615 10.9209 15.1341L8.89385 13.0891C8.76922 12.9634 8.72039 12.7811 8.76545 12.6099L9.49843 9.82532C9.54411 9.65194 9.67888 9.51622 9.85204 9.46973Z" stroke="#CED0D6"/>
</svg>
