<svg width="16" height="16" viewBox="0 0 16 16" fill="none" xmlns="http://www.w3.org/2000/svg">
<path d="M6.8524 3.14706C7.04766 3.34233 7.04766 3.65891 6.8524 3.85417L3.70619 7.00038L13.4997 7.00038C13.7758 7.00038 13.9997 7.22424 13.9997 7.50038C13.9997 7.77652 13.7758 8.00038 13.4997 8.00038L3.70571 8.00038L6.8524 11.1471C7.04766 11.3423 7.04766 11.6589 6.8524 11.8542C6.65713 12.0494 6.34055 12.0494 6.14529 11.8542L2.14529 7.85417C2.05152 7.7604 1.99884 7.63323 1.99884 7.50062C1.99884 7.36801 2.05152 7.24083 2.14529 7.14706L6.14529 3.14706C6.34055 2.9518 6.65713 2.9518 6.8524 3.14706Z" fill="#CED0D6"/>
</svg>
