<svg width="16" height="16" viewBox="0 0 16 16" fill="none" xmlns="http://www.w3.org/2000/svg">
<path d="M9.14614 3.14706C8.95088 3.34233 8.95088 3.65891 9.14614 3.85417L12.2923 7.00038L2.49884 7.00038C2.2227 7.00038 1.99884 7.22424 1.99884 7.50038C1.99884 7.77652 2.2227 8.00038 2.49884 8.00038L12.2928 8.00038L9.14614 11.1471C8.95088 11.3423 8.95088 11.6589 9.14614 11.8542C9.3414 12.0494 9.65798 12.0494 9.85325 11.8542L13.8532 7.85417C13.947 7.7604 13.9997 7.63323 13.9997 7.50062C13.9997 7.36801 13.947 7.24083 13.8532 7.14706L9.85325 3.14706C9.65799 2.9518 9.3414 2.9518 9.14614 3.14706Z" fill="#CED0D6"/>
</svg>
