<svg width="16" height="16" viewBox="0 0 16 16" fill="none" xmlns="http://www.w3.org/2000/svg">
<path d="M8.85435 3.14706C9.04961 3.34233 9.04961 3.65891 8.85435 3.85417L5.70814 7.00038L13.5016 7.00038C13.7778 7.00038 14.0016 7.22424 14.0016 7.50038C14.0016 7.77652 13.7778 8.00038 13.5016 8.00038L5.70766 8.00038L8.85435 11.1471C9.04961 11.3423 9.04961 11.6589 8.85435 11.8542C8.65909 12.0494 8.3425 12.0494 8.14724 11.8542L4.14724 7.85417C4.05347 7.7604 4.00079 7.63323 4.00079 7.50062C4.00079 7.36801 4.05347 7.24083 4.14724 7.14706L8.14724 3.14706C8.3425 2.9518 8.65909 2.9518 8.85435 3.14706Z" fill="#548AF7"/>
<path d="M2.49915 11.5V3.5" stroke="#CED0D6" stroke-linecap="round" stroke-linejoin="round"/>
</svg>
