<svg width="16" height="16" viewBox="0 0 16 16" fill="none" xmlns="http://www.w3.org/2000/svg">
<path d="M11.9979 13C12.5502 13 12.9979 12.5523 12.9979 12C12.9979 11.4477 12.5502 11 11.9979 11C11.4456 11 10.9979 11.4477 10.9979 12C10.9979 12.5523 11.4456 13 11.9979 13Z" fill="#548AF7"/>
<path fill-rule="evenodd" clip-rule="evenodd" d="M13.1195 15.6756C13.0463 15.8707 12.8598 16 12.6514 16H11.3444C11.1359 16 10.9494 15.8707 10.8762 15.6756L10.6267 15.0102C10.5428 14.7865 10.3123 14.6534 10.0765 14.6926L9.37558 14.8092C9.16998 14.8434 8.96474 14.7464 8.86053 14.5659L8.20703 13.4341C8.10281 13.2536 8.1215 13.0273 8.25391 12.8664L8.70534 12.3177C8.85718 12.1331 8.85718 11.8669 8.70534 11.6824L8.25389 11.1336C8.12148 10.9727 8.10279 10.7464 8.20701 10.5659L8.86051 9.43405C8.96472 9.25355 9.16996 9.15663 9.37556 9.19083L10.0765 9.30742C10.3123 9.34664 10.5428 9.21353 10.6267 8.98976L10.8762 8.32444C10.9494 8.12929 11.1359 8 11.3444 8H12.6514C12.8598 8 13.0463 8.12929 13.1195 8.32444L13.369 8.98976C13.4529 9.21353 13.6835 9.34664 13.9192 9.30742L14.6202 9.19083C14.8258 9.15663 15.031 9.25355 15.1352 9.43405L15.7887 10.5659C15.8929 10.7464 15.8743 10.9727 15.7418 11.1336L15.2904 11.6824C15.1386 11.8669 15.1386 12.1331 15.2904 12.3177L15.7418 12.8664C15.8742 13.0273 15.8929 13.2536 15.7887 13.4341L15.1352 14.5659C15.031 14.7464 14.8258 14.8434 14.6202 14.8092L13.9192 14.6926C13.6835 14.6534 13.4529 14.7865 13.369 15.0102L13.1195 15.6756ZM11.6909 15H12.3049L12.4327 14.6591C12.6844 13.9878 13.3761 13.5885 14.0833 13.7061L14.4424 13.7659L14.7494 13.2341L14.5181 12.953C14.0626 12.3993 14.0626 11.6007 14.5181 11.047L14.7495 10.7659L14.4425 10.2341L14.0833 10.2939C13.3761 10.4115 12.6844 10.0122 12.4327 9.34088L12.3049 9H11.6909L11.563 9.34088C11.3113 10.0122 10.6197 10.4115 9.91242 10.2939L9.55328 10.2341L9.24628 10.7659L9.47759 11.047C9.93309 11.6007 9.93309 12.3993 9.47759 12.953L9.2463 13.2341L9.5533 13.7659L9.91242 13.7061C10.6197 13.5885 11.3113 13.9878 11.563 14.6591L11.6909 15Z" fill="#548AF7"/>
<path fill-rule="evenodd" clip-rule="evenodd" d="M12.3086 15H11.6946L11.5668 14.6591C11.315 13.9878 10.6234 13.5885 9.91614 13.7061L9.55702 13.7659L9.25002 13.2341L9.48131 12.953C9.93681 12.3993 9.93681 11.6007 9.48131 11.047L9.25 10.7659L9.557 10.2341L9.91614 10.2939C10.6234 10.4115 11.315 10.0122 11.5668 9.34088L11.6946 9H12.3086L12.4364 9.34088C12.6882 10.0122 13.3798 10.4115 14.087 10.2939L14.4462 10.2341L14.7532 10.7659L14.5219 11.047C14.0664 11.6007 14.0664 12.3993 14.5219 12.953L14.7532 13.2341L14.4462 13.7659L14.087 13.7061C13.3798 13.5885 12.6882 13.9878 12.4364 14.6591L12.3086 15ZM13.0016 12C13.0016 12.5523 12.5539 13 12.0016 13C11.4494 13 11.0016 12.5523 11.0016 12C11.0016 11.4477 11.4494 11 12.0016 11C12.5539 11 13.0016 11.4477 13.0016 12Z" fill="#25324D"/>
<path d="M10 2.5C10 2.22386 10.2239 2 10.5 2H13.5C13.7761 2 14 2.22386 14 2.5C14 2.77614 13.7761 3 13.5 3H11.3177C12.7778 3.97078 13.7892 5.56491 13.9707 7.40336C13.6364 7.25986 13.2834 7.15176 12.9163 7.08377C12.6838 5.82855 11.9825 4.73751 11 3.99951V5.5C11 5.77614 10.7761 6 10.5 6C10.2239 6 10 5.77614 10 5.5V3.10954C9.99986 3.10271 9.99986 3.09587 10 3.08902V2.5Z" fill="#CED0D6"/>
<path d="M5.5 10C5.77614 10 6 10.2239 6 10.5V12.8904C6.00014 12.8972 6.00014 12.9041 6 12.911V13.5C6 13.7761 5.77614 14 5.5 14H2.5C2.22386 14 2 13.7761 2 13.5C2 13.2239 2.22386 13 2.5 13H4.68238C3.06633 11.9256 2 10.0877 2 7.99998C2 5.05827 4.1165 2.61195 6.90967 2.09889C7.18127 2.049 7.44188 2.22873 7.49177 2.50033C7.54166 2.77193 7.36193 3.03255 7.09033 3.08244C4.76326 3.50989 3 5.54954 3 7.99998C3 9.63525 3.78495 11.0878 5 12.0004V10.5C5 10.2239 5.22386 10 5.5 10Z" fill="#CED0D6"/>
</svg>
