<svg width="16" height="16" viewBox="0 0 16 16" fill="none" xmlns="http://www.w3.org/2000/svg">
<rect x="9" y="12" width="6" height="1" rx="0.5" fill="#CED0D6"/>
<rect x="9" y="9" width="6" height="1" rx="0.5" fill="#CED0D6"/>
<rect x="9" y="6" width="6" height="1" rx="0.5" fill="#CED0D6"/>
<rect x="9" y="3" width="6" height="1" rx="0.5" fill="#CED0D6"/>
<path d="M4.94629 10.3536C5.14152 10.5488 5.45805 10.5488 5.65332 10.3536L8.00684 8.00009L5.65332 5.64657C5.45805 5.45141 5.14152 5.45134 4.94629 5.64657C4.75116 5.84181 4.75116 6.15836 4.94629 6.3536L6.09277 7.50009L1.5 7.50009C1.22386 7.50009 1 7.72394 1 8.00009C1 8.27623 1.22386 8.50009 1.5 8.50009H6.09277L4.94629 9.64657C4.75116 9.84181 4.75116 10.1584 4.94629 10.3536Z" fill="#CED0D6"/>
</svg>
