<svg width="16" height="16" viewBox="0 0 16 16" fill="none" xmlns="http://www.w3.org/2000/svg">
<path d="M2.14644 10.1465C1.95118 10.3417 1.95119 10.6583 2.14644 10.8535L5.14644 13.8535C5.3417 14.0488 5.65821 14.0488 5.85347 13.8535L8.85347 10.8535C9.04874 10.6583 9.04874 10.3417 8.85347 10.1465C8.65821 9.95123 8.3417 9.95122 8.14644 10.1465L5.99996 12.293L5.99996 2.5C5.99996 2.22386 5.7761 2 5.49996 2C5.22382 2 4.99996 2.22386 4.99996 2.5L4.99996 12.293L2.85347 10.1465C2.65821 9.95123 2.3417 9.95122 2.14644 10.1465Z" fill="#CED0D6"/>
<path d="M11.9727 1.9C12.3736 1.9 12.7261 1.97113 13.03 2.1134C13.3372 2.25566 13.5748 2.4626 13.7429 2.7342C13.9143 3.00256 14 3.31943 14 3.6848V6.9828H12.9427L12.933 5.12525H13.1949C13.1949 5.53588 13.1205 5.88993 12.9718 6.1874C12.8263 6.48163 12.6161 6.70796 12.3413 6.8664C12.0665 7.0216 11.7415 7.0992 11.3664 7.0992C11.0463 7.0992 10.7586 7.03776 10.5031 6.9149C10.2509 6.79203 10.0521 6.62228 9.90658 6.40565C9.76432 6.18901 9.69318 5.94328 9.69318 5.66845C9.69318 5.40331 9.76108 5.1592 9.89688 4.9361C10.0359 4.713 10.2267 4.53031 10.4692 4.38805C10.7149 4.24578 10.9914 4.15848 11.2985 4.12615L12.5983 3.9855C12.7018 3.9758 12.781 3.93861 12.836 3.87395C12.8942 3.80605 12.9233 3.70743 12.9233 3.5781L12.9815 4.65965L11.5459 4.8197C11.4004 4.83586 11.2727 4.87628 11.1627 4.94095C11.0528 5.00238 10.9671 5.08645 10.9057 5.19315C10.8443 5.29661 10.8135 5.41463 10.8135 5.5472C10.8135 5.68946 10.8507 5.81556 10.9251 5.9255C10.9995 6.0322 11.1045 6.11626 11.2403 6.1777C11.3761 6.23913 11.5313 6.26985 11.7059 6.26985C11.9484 6.26985 12.1618 6.22296 12.3461 6.1292C12.5304 6.0322 12.6727 5.89801 12.7729 5.72665C12.8732 5.55205 12.9233 5.35158 12.9233 5.12525V3.5878C12.9233 3.4229 12.8829 3.27901 12.802 3.15615C12.7212 3.03005 12.6064 2.93305 12.4577 2.86515C12.309 2.79725 12.1392 2.7633 11.9484 2.7633C11.7577 2.7633 11.5863 2.79563 11.4343 2.8603C11.2824 2.92496 11.1595 3.01226 11.0657 3.1222C10.972 3.23213 10.9154 3.35338 10.896 3.48595H9.81443C9.84677 3.18201 9.95993 2.91041 10.1539 2.67115C10.3512 2.42865 10.6066 2.2395 10.9202 2.1037C11.2371 1.9679 11.5879 1.9 11.9727 1.9Z" fill="#CED0D6"/>
<path d="M12.7051 9.9551H10.2122V9.0336H14.0097V9.9357L11.3907 13.0785H14V14H10.0861V13.0979L12.7051 9.9551Z" fill="#CED0D6"/>
</svg>
