<svg width="16" height="16" viewBox="0 0 16 16" fill="none" xmlns="http://www.w3.org/2000/svg">
<path d="M1.14644 10.1465C0.951185 10.3417 0.951185 10.6583 1.14644 10.8535L4.14644 13.8535C4.3417 14.0488 4.65821 14.0488 4.85347 13.8535L7.85347 10.8535C8.04874 10.6583 8.04874 10.3417 7.85347 10.1465C7.65821 9.95123 7.3417 9.95122 7.14644 10.1465L4.99996 12.293L4.99996 2.5C4.99996 2.22386 4.7761 2 4.49996 2C4.22382 2 3.99996 2.22386 3.99996 2.5L3.99996 12.293L1.85347 10.1465C1.65821 9.95123 1.3417 9.95122 1.14644 10.1465Z" fill="#CED0D6"/>
<rect x="10" y="6" width="4" height="3" fill="#43454A"/>
<path fill-rule="evenodd" clip-rule="evenodd" d="M14 5V4C14 2.89543 13.1046 2 12 2C10.8954 2 10 2.89543 10 4V5C9.44772 5 9 5.44772 9 6V9C9 9.55228 9.44772 10 10 10H14C14.5523 10 15 9.55228 15 9V6C15 5.44772 14.5523 5 14 5ZM11 4C11 3.44772 11.4477 3 12 3C12.5523 3 13 3.44772 13 4V5H11V4ZM10 9L10 6H14V9H10Z" fill="#CED0D6"/>
</svg>
