<svg width="16" height="16" viewBox="0 0 16 16" fill="none" xmlns="http://www.w3.org/2000/svg">
<path d="M13.385 2.12H14.585L9.52498 9.12H8.32498L13.385 2.12ZM9.64998 5.4C9.31665 5.4 9.01832 5.32833 8.75498 5.185C8.49498 5.04167 8.29165 4.84167 8.14498 4.585C7.99832 4.325 7.92498 4.03 7.92498 3.7C7.92498 3.37 7.99832 3.07667 8.14498 2.82C8.29165 2.56 8.49498 2.35833 8.75498 2.215C9.01832 2.07167 9.31665 2 9.64998 2C9.98998 2 10.29 2.07167 10.55 2.215C10.8133 2.35833 11.0183 2.56 11.165 2.82C11.315 3.07667 11.39 3.37 11.39 3.7C11.39 4.03 11.315 4.325 11.165 4.585C11.0183 4.84167 10.8133 5.04167 10.55 5.185C10.29 5.32833 9.98998 5.4 9.64998 5.4ZM9.65498 4.515C9.80165 4.515 9.93332 4.48167 10.05 4.415C10.1667 4.345 10.2567 4.24833 10.32 4.125C10.3833 4.00167 10.415 3.86 10.415 3.7C10.415 3.54 10.3833 3.39833 10.32 3.275C10.2567 3.15167 10.1667 3.05667 10.05 2.99C9.93332 2.92 9.80165 2.885 9.65498 2.885C9.50832 2.885 9.37665 2.92 9.25998 2.99C9.14665 3.05667 9.05832 3.15167 8.99498 3.275C8.93165 3.39833 8.89998 3.54 8.89998 3.7C8.89998 3.86 8.93165 4.00167 8.99498 4.125C9.05832 4.24833 9.14665 4.345 9.25998 4.415C9.37665 4.48167 9.50832 4.515 9.65498 4.515ZM13.26 9.24C12.9233 9.24 12.625 9.16833 12.365 9.025C12.105 8.88167 11.9 8.68167 11.75 8.425C11.6033 8.165 11.53 7.87 11.53 7.54C11.53 7.21 11.6033 6.91667 11.75 6.66C11.9 6.4 12.105 6.19833 12.365 6.055C12.625 5.91167 12.9233 5.84 13.26 5.84C13.5967 5.84 13.8967 5.91167 14.16 6.055C14.4267 6.19833 14.6333 6.4 14.78 6.66C14.9267 6.91667 15 7.21 15 7.54C15 7.87 14.9267 8.165 14.78 8.425C14.6333 8.68167 14.4267 8.88167 14.16 9.025C13.8967 9.16833 13.5967 9.24 13.26 9.24ZM13.26 8.355C13.41 8.355 13.5433 8.32167 13.66 8.255C13.7767 8.185 13.8667 8.08833 13.93 7.965C13.9967 7.84167 14.03 7.7 14.03 7.54C14.03 7.38333 13.9967 7.24333 13.93 7.12C13.8667 6.99333 13.7767 6.89667 13.66 6.83C13.5433 6.76 13.41 6.725 13.26 6.725C13.1133 6.725 12.9817 6.76 12.865 6.83C12.7517 6.89667 12.6633 6.99333 12.6 7.12C12.5367 7.24333 12.505 7.38333 12.505 7.54C12.505 7.7 12.5367 7.84167 12.6 7.965C12.6633 8.08833 12.7517 8.185 12.865 8.255C12.9817 8.32167 13.1133 8.355 13.26 8.355Z" fill="#CED0D6"/>
<path d="M1.14644 10.1465C0.951185 10.3417 0.951185 10.6583 1.14644 10.8535L4.14644 13.8535C4.3417 14.0488 4.65821 14.0488 4.85347 13.8535L7.85347 10.8535C8.04874 10.6583 8.04874 10.3417 7.85347 10.1465C7.65821 9.95123 7.3417 9.95122 7.14644 10.1465L4.99996 12.293L4.99996 2.5C4.99996 2.22386 4.7761 2 4.49996 2C4.22382 2 3.99996 2.22386 3.99996 2.5L3.99996 12.293L1.85347 10.1465C1.65821 9.95123 1.3417 9.95122 1.14644 10.1465Z" fill="#CED0D6"/>
</svg>
