<svg width="16" height="16" viewBox="0 0 16 16" fill="none" xmlns="http://www.w3.org/2000/svg">
<g clip-path="url(#clip0_22_30573)">
<rect x="2" y="13" width="5" height="1" rx="0.5" fill="#CED0D6"/>
<path d="M2.1464 6.06082C1.95117 5.86559 1.95123 5.54906 2.1464 5.35379L5.49991 2.00027L8.85343 5.35379C9.04859 5.54906 9.04866 5.86559 8.85343 6.06082C8.65819 6.25595 8.34164 6.25595 8.1464 6.06082L5.99991 3.91434L5.99991 10.5071C5.99991 10.7833 5.77606 11.0071 5.49991 11.0071C5.22377 11.0071 4.99991 10.7833 4.99991 10.5071L4.99991 3.91434L2.85343 6.06082C2.65819 6.25595 2.34164 6.25595 2.1464 6.06082Z" fill="#CED0D6"/>
<path d="M10.5 16C10.7761 16 11 15.7761 11 15.5C11 15.2239 10.7761 15 10.5 15C10.2239 15 10 14.7761 10 14.5L10 12.8604C10 12.5021 9.8092 12.1773 9.50978 12C9.8092 11.8227 10 11.4979 10 11.1396V9.5C10 9.22386 10.2239 9 10.5 9C10.7761 9 11 8.77614 11 8.5C11 8.22386 10.7761 8 10.5 8C9.67157 8 9 8.67157 9 9.5L9 11.1396L7.84189 11.5257C7.63772 11.5937 7.5 11.7848 7.5 12C7.5 12.2152 7.63772 12.4063 7.84189 12.4743L9 12.8604L9 14.5C9 15.3284 9.67157 16 10.5 16Z" fill="#548AF7"/>
<path d="M12.5 8C12.2239 8 12 8.22386 12 8.5C12 8.77614 12.2239 9 12.5 9C12.7761 9 13 9.22386 13 9.5V11.1396C13 11.4979 13.1908 11.8227 13.4902 12C13.1908 12.1773 13 12.5021 13 12.8604V14.5C13 14.7761 12.7761 15 12.5 15C12.2239 15 12 15.2239 12 15.5C12 15.7761 12.2239 16 12.5 16C13.3284 16 14 15.3284 14 14.5V12.8604L15.1581 12.4743C15.3623 12.4063 15.5 12.2152 15.5 12C15.5 11.7848 15.3623 11.5937 15.1581 11.5257L14 11.1396V9.5C14 8.67157 13.3284 8 12.5 8Z" fill="#548AF7"/>
</g>
<defs>
<clipPath id="clip0_22_30573">
<rect width="16" height="16" fill="white"/>
</clipPath>
</defs>
</svg>
