<svg width="16" height="16" viewBox="0 0 16 16" fill="none" xmlns="http://www.w3.org/2000/svg">
<path d="M3.00015 7C3.00015 4.23858 5.23873 2 8.00015 2C8.27629 2 8.50015 1.77614 8.50015 1.5C8.50015 1.22386 8.27629 1 8.00015 1C4.68644 1 2.00015 3.68629 2.00015 7V7.29316L0.853526 6.14671C0.658249 5.95146 0.341667 5.95149 0.14642 6.14676C-0.0488276 6.34204 -0.0488034 6.65862 0.146474 6.85387L2.1465 8.85359C2.34176 9.04882 2.65831 9.04882 2.85356 8.85359L4.85355 6.85382C5.04882 6.65856 5.04884 6.34198 4.85359 6.14671C4.65834 5.95144 4.34175 5.95142 4.14648 6.14667L3.00015 7.29288V7Z" fill="#CED0D6"/>
<path d="M8.00015 15C7.72401 15 7.50015 14.7761 7.50015 14.5C7.50015 14.2239 7.72401 14 8.00015 14C10.7616 14 13.0002 11.7614 13.0002 9V8.70677L11.8534 9.85337C11.6582 10.0486 11.3416 10.0486 11.1463 9.85334C10.9511 9.65807 10.9511 9.34149 11.1464 9.14623L13.1464 7.14642C13.3416 6.95118 13.6582 6.95118 13.8534 7.14642L15.8534 9.14623C16.0487 9.34149 16.0487 9.65807 15.8535 9.85334C15.6582 10.0486 15.3416 10.0486 15.1464 9.85337L14.0002 8.70726V9C14.0002 12.3137 11.3139 15 8.00015 15Z" fill="#CED0D6"/>
<path fill-rule="evenodd" clip-rule="evenodd" d="M10.0001 2C10.0001 1.44772 10.4478 1 11.0001 1H14.0001C14.5524 1 15.0001 1.44772 15.0001 2V5C15.0001 5.55228 14.5524 6 14.0001 6H11.0001C10.4478 6 10.0001 5.55228 10.0001 5V2ZM11.0001 2H14.0001V5H11.0001V2Z" fill="#CED0D6"/>
<path fill-rule="evenodd" clip-rule="evenodd" d="M1.00012 11C1.00012 10.4477 1.44784 10 2.00012 10H5.00012C5.55241 10 6.00012 10.4477 6.00012 11V14C6.00012 14.5523 5.55241 15 5.00012 15H2.00012C1.44784 15 1.00012 14.5523 1.00012 14V11ZM2.00012 11H5.00012V14H2.00012L2.00012 11Z" fill="#CED0D6"/>
</svg>
