<svg width="16" height="16" viewBox="0 0 16 16" fill="none" xmlns="http://www.w3.org/2000/svg">
<path fill-rule="evenodd" clip-rule="evenodd" d="M7.11074 1.60684C7.50128 1.65528 7.81506 1.95182 7.88546 2.339L9.37091 10.509L10.6806 7.62758C10.8267 7.30628 11.147 7.1 11.5 7.1H14.5C14.997 7.1 15.4 7.50294 15.4 8C15.4 8.49706 14.997 8.9 14.5 8.9H12.0795L9.81931 13.8724C9.65646 14.2307 9.27975 14.4416 8.88921 14.3932C8.49867 14.3447 8.18489 14.0482 8.11449 13.661L6.62904 5.49101L5.31931 8.37242C5.17326 8.69372 4.8529 8.9 4.49998 8.9H1.49998C1.00292 8.9 0.599976 8.49706 0.599976 8C0.599976 7.50294 1.00292 7.1 1.49998 7.1H3.92045L6.18065 2.12758C6.34349 1.76932 6.72021 1.55841 7.11074 1.60684Z" fill="#A571E6"/>
</svg>
