<svg width="16" height="16" viewBox="0 0 16 16" fill="none" xmlns="http://www.w3.org/2000/svg">
<path d="M11.8632 2.86355C12.2146 2.51211 12.7841 2.51218 13.1356 2.86355C13.4871 3.21503 13.4871 3.78454 13.1356 4.13602L9.27234 7.9993L13.1366 11.8636C13.488 12.215 13.488 12.7845 13.1366 13.136C12.7851 13.4875 12.2156 13.4875 11.8641 13.136L7.99988 9.27176L4.13563 13.136C3.78415 13.4875 3.21464 13.4875 2.86316 13.136C2.51179 12.7845 2.51173 12.215 2.86316 11.8636L6.72742 7.9993L2.86414 4.13602C2.51267 3.78454 2.51267 3.21503 2.86414 2.86355C3.21562 2.51218 3.78516 2.51212 4.1366 2.86355L7.99988 6.72684L11.8632 2.86355Z" fill="#CED0D6"/>
</svg>
