<svg width="16" height="16" viewBox="0 0 16 16" fill="none" xmlns="http://www.w3.org/2000/svg">
<path d="M6.67117 10.5795V10.4318C6.67496 9.74621 6.73935 9.20076 6.86435 8.79545C6.99314 8.39015 7.17496 8.06439 7.40981 7.81818C7.64466 7.56818 7.93064 7.33901 8.26776 7.13068C8.49882 6.98674 8.70526 6.82955 8.88708 6.65909C9.07269 6.48485 9.21852 6.29167 9.32458 6.07955C9.43064 5.86364 9.48367 5.62311 9.48367 5.35795C9.48367 5.05871 9.41359 4.79924 9.27344 4.57955C9.13329 4.35985 8.9439 4.18939 8.70526 4.06818C8.47041 3.94697 8.20716 3.88636 7.91549 3.88636C7.64655 3.88636 7.39087 3.94508 7.14844 4.0625C6.90981 4.17614 6.71094 4.35038 6.55185 4.58523C6.39655 4.81629 6.30943 5.10985 6.29049 5.46591H4.26776C4.2867 4.74621 4.46094 4.14394 4.79049 3.65909C5.12382 3.17424 5.56322 2.81061 6.10867 2.56818C6.65791 2.32576 7.26397 2.20455 7.92685 2.20455C8.65034 2.20455 9.2867 2.33144 9.83594 2.58523C10.389 2.83902 10.8189 3.20076 11.1257 3.67045C11.4363 4.13636 11.5916 4.68939 11.5916 5.32955C11.5916 5.76136 11.5215 6.14773 11.3814 6.48864C11.245 6.82955 11.05 7.13258 10.7962 7.39773C10.5424 7.66288 10.2412 7.89962 9.89276 8.10795C9.58594 8.29735 9.33405 8.49432 9.13708 8.69886C8.9439 8.90341 8.79996 9.14394 8.70526 9.42045C8.61435 9.69318 8.567 10.0303 8.56322 10.4318V10.5795H6.67117ZM7.65981 14.125C7.3189 14.125 7.02534 14.0038 6.77912 13.7614C6.53291 13.5189 6.40981 13.2235 6.40981 12.875C6.40981 12.5341 6.53291 12.2424 6.77912 12C7.02534 11.7576 7.3189 11.6364 7.65981 11.6364C7.99693 11.6364 8.28859 11.7576 8.53481 12C8.78481 12.2424 8.90981 12.5341 8.90981 12.875C8.90981 13.1061 8.8511 13.3163 8.73367 13.5057C8.62003 13.6951 8.46852 13.8466 8.27913 13.9602C8.09352 14.0701 7.88708 14.125 7.65981 14.125Z" fill="#CED0D6"/>
</svg>
