<svg width="16" height="16" viewBox="0 0 16 16" fill="none" xmlns="http://www.w3.org/2000/svg">
<path d="M14.472 16C14.197 16 13.9477 15.9413 13.724 15.824C13.5003 15.703 13.3243 15.538 13.196 15.329C13.0677 15.12 13.0035 14.8853 13.0035 14.625L12.998 11.2425H12.008L12.0135 10.368H12.6295C12.7688 10.368 12.8807 10.324 12.965 10.236C13.053 10.148 13.097 10.0362 13.097 9.9005V8.993H13.999V10.368H15.3575L15.352 11.2425H13.9935L13.999 14.537C13.999 14.7057 14.054 14.8468 14.164 14.9605C14.2777 15.0705 14.4188 15.1255 14.5875 15.1255H15.352V16H14.472Z" fill="#CED0D6"/>
<path d="M1 3.86667C1 2.83574 1.7835 2 2.75 2H6.03823C6.29871 2 6.5489 2.10163 6.73559 2.28327L8.5 4L13 4C14.1046 4 15 4.89543 15 6V8H12.0859V9.35938H11V12.2344H12V14H2.75C1.7835 14 1 13.1643 1 12.1333V3.86667Z" fill="#43454A"/>
<path d="M6.03823 3L8.09379 5H13C13.5523 5 14 5.44772 14 6V8H15V6C15 4.89543 14.1046 4 13 4L8.5 4L6.73559 2.28327C6.5489 2.10163 6.29871 2 6.03823 2H2.75C1.7835 2 1 2.83574 1 3.86667V12.1333C1 13.1643 1.7835 14 2.75 14H12V13H2.75C2.3956 13 2 12.6738 2 12.1333V3.86667C2 3.32624 2.3956 3 2.75 3H6.03823Z" fill="#CED0D6"/>
</svg>
