<svg width="16" height="16" viewBox="0 0 16 16" fill="none" xmlns="http://www.w3.org/2000/svg">
<path d="M3.98749 9.77751C3.99749 9.39251 3.86999 9.08501 3.60499 8.85501C3.33999 8.62501 2.98249 8.51001 2.53249 8.51001H1.99994V7.43001H2.53249C2.98249 7.43001 3.33999 7.31501 3.60499 7.08501C3.86999 6.85501 3.99749 6.54751 3.98749 6.16251L3.95749 4.58C3.94749 4.06 4.05499 3.605 4.27999 3.215C4.50999 2.825 4.83749 2.525 5.26249 2.315C5.68749 2.105 6.18749 2 6.76249 2H7.49994V3.005H6.76999C6.24999 3.005 5.83749 3.15 5.53249 3.44C5.23249 3.725 5.08499 4.1125 5.08999 4.6025L5.11999 6.17001C5.12999 6.68001 4.99249 7.09751 4.70749 7.42251C4.42249 7.74251 4.03749 7.92001 3.55249 7.95501C4.03749 8.04501 4.42249 8.25501 4.70749 8.58501C4.99249 8.91001 5.12999 9.30501 5.11999 9.77001L5.08999 11.5475C5.07999 11.9875 5.21249 12.3375 5.48749 12.5975C5.76749 12.8625 6.14499 12.995 6.61999 12.995H7.49994V14H6.61249C6.07749 14 5.60749 13.9 5.20249 13.7C4.80249 13.505 4.49249 13.2225 4.27249 12.8525C4.05749 12.4875 3.95249 12.06 3.95749 11.57L3.98749 9.77751Z" fill="#CED0D6"/>
<path d="M12.0145 9.77751C12.0045 9.39251 12.132 9.08501 12.397 8.85501C12.662 8.62501 13.0195 8.51001 13.4695 8.51001H13.9999V7.43001H13.4695C13.0195 7.43001 12.662 7.31501 12.397 7.08501C12.132 6.85501 12.0045 6.54751 12.0145 6.16251L12.0445 4.58C12.0545 4.06 11.9445 3.605 11.7145 3.215C11.4895 2.825 11.1645 2.525 10.7395 2.315C10.3145 2.105 9.81448 2 9.23948 2H8.49994V3.005H9.23199C9.75199 3.005 10.162 3.15 10.462 3.44C10.767 3.725 10.917 4.1125 10.912 4.6025L10.882 6.17001C10.872 6.68001 11.0095 7.09751 11.2945 7.42251C11.5795 7.74251 11.9645 7.92001 12.4495 7.95501C11.9645 8.04501 11.5795 8.25501 11.2945 8.58501C11.0095 8.91001 10.872 9.30501 10.882 9.77001L10.912 11.5475C10.922 11.9875 10.787 12.3375 10.507 12.5975C10.232 12.8625 9.85698 12.995 9.38198 12.995H8.49994V14H9.38948C9.92448 14 10.392 13.9 10.792 13.7C11.197 13.505 11.507 13.2225 11.722 12.8525C11.942 12.4875 12.0495 12.06 12.0445 11.57L12.0145 9.77751Z" fill="#CED0D6"/>
</svg>
