<svg width="16" height="16" viewBox="0 0 16 16" fill="none" xmlns="http://www.w3.org/2000/svg">
<rect x="2" y="3" width="4" height="1" rx="0.5" fill="#CED0D6"/>
<rect x="10" y="7.5" width="4" height="1" rx="0.5" fill="#CED0D6"/>
<rect x="10" y="12" width="4" height="1" rx="0.5" fill="#CED0D6"/>
<path d="M13.5 3C13.7761 3 14 3.22386 14 3.5C14 3.77614 13.7761 4 13.5 4H10.7949L5.9375 12.7432L5.93457 12.7412C5.8492 12.8947 5.68807 13 5.5 13H2.5C2.22386 13 2 12.7761 2 12.5C2 12.2239 2.22386 12 2.5 12H5.20508L7.23535 8.34277L10 4L7 7L6.99707 7.00977L5.31641 8.38672L5.31445 8.38477C5.22826 8.45529 5.12005 8.5 5 8.5H2.5C2.22386 8.5 2 8.27614 2 8C2 7.72386 2.22386 7.5 2.5 7.5H4.82227L10.1836 3.11328L10.1846 3.11426C10.2708 3.04368 10.3799 3 10.5 3H13.5Z" fill="#3574F0"/>
</svg>
