<svg width="16" height="16" viewBox="0 0 16 16" fill="none" xmlns="http://www.w3.org/2000/svg">
<path d="M11.8536 6.85352C12.0488 6.65825 12.0488 6.34175 11.8536 6.14648L7.85356 2.14648C7.75979 2.05272 7.63265 2 7.50004 2C7.36743 2 7.24029 2.05272 7.14652 2.14648L3.14652 6.14648C2.95127 6.34175 2.95126 6.65826 3.14652 6.85352C3.34179 7.04877 3.65829 7.04877 3.85356 6.85352L7.00004 3.70703L7.00004 13.5C7.00004 13.7761 7.2239 14 7.50004 14C7.77618 14 8.00004 13.7761 8.00004 13.5L8.00004 3.70703L11.1465 6.85352C11.3418 7.04877 11.6583 7.04877 11.8536 6.85352Z" fill="#CED0D6"/>
</svg>
