<svg width="16" height="16" viewBox="0 0 16 16" fill="none" xmlns="http://www.w3.org/2000/svg">
<path d="M10.8538 5.354C11.049 5.15881 11.0488 4.84225 10.8538 4.64697L8.35378 2.146C8.15854 1.95114 7.84191 1.951 7.64675 2.146L5.14675 4.646C4.9516 4.84114 4.95184 5.15774 5.14675 5.35303C5.34202 5.54823 5.65854 5.54827 5.85378 5.35303L7.50027 3.70654L7.50027 10.5142C7.50027 10.7903 7.72413 11.0142 8.00027 11.0142C8.27638 11.0141 8.50027 10.7903 8.50027 10.5142L8.50027 3.70654L10.1468 5.35303C10.3419 5.54808 10.6585 5.54883 10.8538 5.354Z" fill="#CED0D6"/>
<rect width="12" height="1" rx="0.5" transform="matrix(1 0 0 -1 2 14)" fill="#CED0D6"/>
<rect x="2" y="10" width="1" height="4" rx="0.5" fill="#CED0D6"/>
<rect x="13" y="10" width="1" height="4" rx="0.5" fill="#CED0D6"/>
</svg>
