<svg preserveAspectRatio="none" width="100%" height="100%" overflow="visible" style="display: block;" viewBox="0 0 16 16" fill="none" xmlns="http://www.w3.org/2000/svg">
<g id="view-more-symbolic 1">
<path id="Vector" d="M7.99609 0C6.89063 0 5.99609 0.894531 5.99609 2C5.99609 3.10547 6.89063 4 7.99609 4C9.09766 4 9.99609 3.10547 9.99609 2C9.99609 0.894531 9.09766 0 7.99609 0ZM7.99609 6C6.89063 6 5.99609 6.89453 5.99609 8C5.99609 9.10547 6.89063 10 7.99609 10C9.09766 10 9.99609 9.10547 9.99609 8C9.99609 6.89453 9.09766 6 7.99609 6ZM7.99609 12C6.89063 12 5.99609 12.8945 5.99609 14C5.99609 15.1055 6.89063 16 7.99609 16C9.09766 16 9.99609 15.1055 9.99609 14C9.99609 12.8945 9.09766 12 7.99609 12Z" fill="var(--fill-0, #007AFF)"/>
</g>
</svg>
