<svg width="16" height="16" viewBox="0 0 16 16" fill="none" xmlns="http://www.w3.org/2000/svg">
<path d="M6.5 5C8.98528 5 11 7.01472 11 9.5C11 11.9853 8.98528 14 6.5 14C4.01472 14 2 11.9853 2 9.5C2 7.01472 4.01472 5 6.5 5Z" fill="#402929" stroke="#DB5C5C"/>
<path d="M10 1C12.7614 1 15 3.23858 15 6C15 7.87651 13.9656 9.51 12.4365 10.3652C12.4774 10.0826 12.5 9.79391 12.5 9.5C12.5 6.18629 9.81371 3.5 6.5 3.5C6.20582 3.50001 5.91664 3.52159 5.63379 3.5625C6.48905 2.03371 8.12374 1.00008 10 1Z" fill="#402929"/>
<path d="M9.99976 1C12.7612 1 14.9998 3.23858 14.9998 6C14.9998 7.87651 13.9653 9.51 12.4363 10.3652C12.4771 10.0826 12.4998 9.79391 12.4998 9.5C12.4998 9.376 12.4945 9.25299 12.4871 9.13086C13.4083 8.39805 13.9998 7.26865 13.9998 6C13.9998 3.79086 12.2089 2 9.99976 2C8.73148 2.00006 7.60168 2.59087 6.8689 3.51172C6.74685 3.50431 6.62367 3.5 6.49976 3.5C6.20557 3.50001 5.9164 3.52159 5.63354 3.5625C6.48881 2.03371 8.12349 1.00008 9.99976 1Z" fill="#DB5C5C"/>
</svg>
