<svg width="16" height="16" viewBox="0 0 16 16" fill="none" xmlns="http://www.w3.org/2000/svg">
<path d="M7.56641 1.76758C7.75839 1.43177 8.24264 1.4317 8.43457 1.76758L14.7109 12.752C14.9014 13.0853 14.6603 13.5 14.2764 13.5H1.72363C1.33973 13.5 1.09861 13.0853 1.28906 12.752L7.56641 1.76758Z" fill="#3D3223" stroke="#D6AE58"/>
<path d="M7.9999 5.00159C8.33127 5.00159 8.5999 5.27022 8.5999 5.60159L8.5999 9.00002C8.5999 9.3314 8.33127 9.60002 7.9999 9.60002C7.66853 9.60002 7.3999 9.3314 7.3999 9.00002L7.3999 5.60159C7.3999 5.27022 7.66853 5.00159 7.9999 5.00159Z" fill="#D6AE58"/>
<path d="M8.8002 11.2C8.8002 11.6419 8.44202 12 8.0002 12C7.55837 12 7.2002 11.6419 7.2002 11.2C7.2002 10.7582 7.55837 10.4 8.0002 10.4C8.44202 10.4 8.8002 10.7582 8.8002 11.2Z" fill="#D6AE58"/>
</svg>
